<svg width="378" height="481" viewBox="0 0 378 481" fill="none" xmlns="http://www.w3.org/2000/svg">
<g clip-path="url(#clip0_51_808)">
<rect width="751.562" height="481" transform="translate(-355.719)" fill="white"/>
<path fill-rule="evenodd" clip-rule="evenodd" d="M8.51234 21.9742C3.41145 23.3122 -0.335418 27.8602 -1.99654 34.7558C-3.77251 42.092 -1.05916 47.289 5.74291 49.5457C10.2135 51.0172 14.0165 50.7875 17.9156 48.7632C25.0248 45.0938 27.8503 35.0442 23.7616 28.0899C21.9856 25.0908 19.0987 23.0264 16.0408 22.5858C14.628 22.3748 14.4358 22.3935 13.939 22.7006C13.461 23.0264 13.4423 23.0825 13.7281 23.2935C13.899 23.427 14.6655 23.6193 15.4293 23.7528C19.3284 24.4018 22.5758 27.708 23.7215 32.1786C24.1622 33.8985 24.0073 37.4718 23.4171 39.3439C21.8681 44.2151 18.4096 47.484 13.7094 48.5335C8.70194 49.6418 1.92126 46.9285 0.0464869 43.0507C-1.2541 40.3935 -0.9657 36.2861 0.791568 32.0264C2.89335 26.9442 5.55061 24.5754 10.8411 23.0852C11.8159 22.7994 12.7907 22.4923 12.9803 22.3775C13.3435 22.2065 13.3435 22.1852 12.999 21.9368C12.521 21.5923 9.88503 21.611 8.50967 21.9742H8.51234Z" fill="black"/>
<path fill-rule="evenodd" clip-rule="evenodd" d="M15.5627 29.4835C14.7802 29.9803 13.3274 31.4144 11.4927 33.4948L10.7476 34.3548L8.91288 32.4052C7.42267 30.8189 6.98202 30.437 6.54404 30.4556C6.18083 30.4556 5.95115 30.5892 5.79892 30.9337C5.62801 31.3343 5.6654 31.5079 6.10338 32.1755C6.38914 32.5948 7.21169 33.5883 7.93809 34.3548C8.6832 35.1186 9.27608 35.8263 9.27608 35.9224C9.27608 36.0185 8.79803 36.6862 8.20516 37.4126C6.81109 39.1512 5.66274 40.8524 5.41437 41.5601C4.93633 42.9355 6.27431 43.6619 7.21169 42.5162C7.44137 42.2304 8.18648 41.2156 8.85413 40.2809C9.50309 39.3435 10.2669 38.3126 10.5366 38.0082L11.0147 37.434L11.9707 38.4862C12.4862 39.0604 13.3087 40.0726 13.7868 40.7402C14.7428 42.0408 15.2209 42.3826 15.7737 42.2117C16.8633 41.8672 16.193 40.3022 13.7093 37.4153L12.3152 35.7915L13.3274 34.6058C13.8802 33.9568 14.8951 32.7898 15.544 32.0073C17.7793 29.4462 17.7793 28.0521 15.5627 29.4862V29.4835Z" fill="black"/>
<path fill-rule="evenodd" clip-rule="evenodd" d="M310.079 37.7306C309.382 38.8122 309.214 39.8938 308.757 46.6531C308.156 55.2872 306.954 64.5703 306.375 65.1472C306.135 65.3875 306.062 65.1712 303.969 59.2317C302.238 54.3258 302.022 53.9653 300.986 54.0614C299.952 54.1576 299.736 54.7104 299.279 58.3424C298.75 62.5273 298.149 66.0872 297.933 66.5199C297.741 66.8323 297.717 66.8323 297.597 66.5199C297.404 65.967 295.674 57.7896 294.806 53.4125C293.844 48.6027 292.015 40.7858 291.654 39.9686C291.27 39.1513 290.525 39.1513 290.332 39.9686C290.044 41.0982 290.429 44.2015 291.414 48.843C291.943 51.3454 293.024 56.5398 293.844 60.34C295.911 70.0798 296.275 71.0893 297.693 71.0893C299.111 71.0893 300.051 68.8513 300.868 62.984C301.156 60.965 301.445 59.3038 301.517 59.3038C301.589 59.3038 302.238 60.9863 302.959 63.008C303.68 65.051 304.473 67.1448 304.762 67.6495C305.603 69.1638 306.949 69.4762 307.697 68.3466C308.995 66.3276 310.367 56.465 311.137 43.1893C311.449 37.9469 311.113 36.1656 310.079 37.7306Z" fill="black"/>
<path fill-rule="evenodd" clip-rule="evenodd" d="M348.824 46.9653C348.151 47.9988 347.022 51.6549 345.673 57.0896C345.168 59.1086 344.687 60.6976 344.615 60.5774C344.519 60.4813 344.039 59.3276 343.534 58.051C342.332 54.9477 341.779 54.1546 340.791 54.0584C340.334 54.0104 339.83 54.1065 339.637 54.2747C339.445 54.419 338.796 56.1015 338.195 58.0029C337.594 59.9017 336.993 61.5148 336.873 61.5869C336.753 61.683 336.657 61.7071 336.657 61.659C336.657 61.6109 336.224 59.4718 335.72 56.8973C335.215 54.3228 334.638 51.4145 334.47 50.4291C334.133 48.4341 333.749 47.8546 333.028 48.2418C332.643 48.4581 332.571 48.7706 332.571 50.1166C332.571 53.2679 334.833 64.9546 335.602 65.8225C336.203 66.4715 336.996 66.3994 337.693 65.5822C338.03 65.1736 338.751 63.419 339.4 61.4213C340.025 59.5466 340.577 57.8133 340.649 57.621C340.818 57.1163 340.962 57.4047 342.164 60.6282C343.221 63.443 343.87 64.3563 344.738 64.3563C345.606 64.3563 346.156 63.5632 346.709 61.6376C347.526 58.8709 350.077 48.4822 350.245 47.2083C350.413 46.1748 350.389 46.0786 349.909 46.0786C349.596 46.0786 349.187 46.4151 348.827 46.9679L348.824 46.9653Z" fill="black"/>
<path fill-rule="evenodd" clip-rule="evenodd" d="M320.371 48.6989C319.819 48.7951 319.146 49.0594 318.857 49.3238C318.04 50.0689 316.958 51.9464 316.163 54.0375C315.441 55.9363 315.393 56.2488 315.369 59.3039C315.369 62.5033 315.393 62.5755 316.163 64.1618C317.028 65.9404 318.449 67.3372 319.626 67.5775C320.66 67.7938 322.081 67.3372 323.018 66.52C324.749 65.0057 326.073 61.2535 326.073 57.8137V55.9149L326.987 55.5544C328.26 55.0256 329.369 54.1123 329.825 53.2443C330.378 52.1627 329.97 51.9945 328.455 52.6675C327.734 53.004 326.869 53.3404 326.533 53.4126C325.932 53.5568 325.86 53.4847 325.475 52.2829C324.946 50.7206 324.153 49.5161 323.264 48.9393C322.567 48.4586 322.086 48.4345 320.377 48.6989H320.371ZM323.331 52.2588C323.811 53.3645 323.739 53.6048 323.114 53.1722C322.465 52.7636 321.985 51.8502 321.985 51.0811C321.985 50.7446 322.153 50.7286 322.489 51.033C322.778 51.2734 323.162 51.8262 323.331 52.2588ZM320.756 53.9654C321.068 54.4221 321.886 54.9989 322.727 55.3835L324.145 56.0565V57.5707C324.145 60.9143 322.751 64.4743 321.138 65.2434C320.321 65.628 320.273 65.628 319.624 65.1713C319.263 64.9069 318.662 64.0897 318.254 63.3686C317.557 62.1188 317.533 61.9505 317.533 59.1838C317.533 56.417 317.605 56.1045 318.326 54.0134C319.359 51.0304 319.576 50.79 319.936 52.1387C320.08 52.7155 320.441 53.5568 320.753 53.9654H320.756Z" fill="black"/>
<path fill-rule="evenodd" clip-rule="evenodd" d="M137.96 23.1653C134.52 25.7638 127.908 27.7347 124.372 27.2059C122.11 26.8694 121.749 26.8935 121.437 27.5665C121.148 28.2395 121.461 29.2249 124.131 35.7439C125.646 39.4721 126.538 42.116 127.115 44.6664L127.427 46.1326H126.418C122.906 46.1326 121.151 50.8222 123.651 53.4928C124.42 54.3341 124.684 54.4783 125.838 54.5504C126.92 54.6465 127.28 54.5744 127.953 54.0937C129.275 53.2044 129.756 51.9786 129.852 49.308C129.996 45.5558 128.915 41.0104 126.436 35.0228L125.379 32.4964H126.653C129.443 32.4964 133.796 31.3427 137.57 29.5854C138.676 29.0567 139.613 28.6721 139.637 28.6961C139.805 28.8884 142.668 39.5175 142.788 40.3614C142.957 41.3949 142.933 41.3949 142.188 41.3949C141.154 41.3949 139.661 42.1881 139.012 43.1015C138.363 44.0148 138.147 45.8201 138.531 46.9979C138.7 47.4786 139.253 48.2477 139.781 48.7044C140.574 49.4255 140.887 49.5697 141.824 49.5697C144.231 49.5697 145.336 48.0795 145.48 44.6397C145.601 41.921 145.192 39.6617 143.461 33.6501C142.74 31.0997 141.827 27.6866 141.442 26.0495C141.082 24.4151 140.625 22.9222 140.481 22.73C140.024 22.2012 139.015 22.3694 137.955 23.1626L137.96 23.1653Z" fill="black"/>
<path fill-rule="evenodd" clip-rule="evenodd" d="M96.8351 44.3031C94.768 44.6877 91.3283 45.5289 90.8235 45.7933C89.3814 46.5384 89.4054 47.6681 90.9678 50.0983C92.8185 53.0093 94.72 57.4826 96.09 62.2443C96.8592 64.9149 96.8591 64.963 96.1621 64.963C94.5998 64.963 92.6983 67.3692 92.458 69.6286C92.1215 72.9962 94.8401 75.6642 97.3639 74.4384C100.371 72.9482 100.635 68.2345 98.133 60.6339C97.0755 57.3865 95.5826 53.7544 94.7413 52.2402C94.1645 51.2547 94.0684 50.9182 94.3087 50.774C94.477 50.6779 95.847 50.2212 97.3399 49.8126C100.756 48.8271 100.996 48.6108 100.611 46.7334C100.083 44.255 99.4336 43.8224 96.8351 44.3031Z" fill="black"/>
<path fill-rule="evenodd" clip-rule="evenodd" d="M364.343 60.7755C364.007 64.8882 362.733 67.7031 359.798 70.6354C358.115 72.2938 358.019 72.4861 358.476 72.9455C359.245 73.7146 360.858 72.7532 362.829 70.347C364.992 67.7004 366.124 64.5998 366.124 61.3283C366.124 59.2372 365.86 58.5615 365.067 58.5615C364.538 58.5615 364.49 58.6577 364.346 60.7728L364.343 60.7755Z" fill="black"/>
<path fill-rule="evenodd" clip-rule="evenodd" d="M369.105 68.3521C368.648 69.0973 367.446 70.5394 366.458 71.5756C365.47 72.6118 364.68 73.5705 364.68 73.6907C364.68 74.3877 367.062 73.5946 368.432 72.4409C370.066 71.0708 371.415 68.3521 370.934 67.4628C370.502 66.6697 370.045 66.91 369.107 68.3521H369.105Z" fill="black"/>
<path fill-rule="evenodd" clip-rule="evenodd" d="M227.963 229.593C226.617 231.035 225.556 236.206 225.46 241.98C225.412 244.362 225.46 244.77 225.869 245.227C226.662 246.092 227.888 245.9 229.525 244.674C231.544 243.184 235.609 238.855 236.885 236.857C238.76 233.874 236.26 232.072 232.772 233.874L231.426 234.571V232.48C231.426 229.906 230.97 229.065 229.528 228.944C228.806 228.872 228.518 228.992 227.965 229.593H227.963Z" fill="black"/>
<path fill-rule="evenodd" clip-rule="evenodd" d="M239.027 254.991C238.522 255.472 237.657 256.674 237.128 257.71C236.047 259.777 233.472 266.969 233.472 267.906C233.472 269.468 235.034 269.805 237.008 268.675C242.106 265.692 246.027 262.904 246.579 261.844C247.757 259.558 245.45 258.38 242.443 259.777L241.193 260.354L241.698 259.248C241.962 258.623 242.226 257.445 242.298 256.65C242.419 255.376 242.371 255.111 241.914 254.655C241.145 253.885 240.135 254.006 239.027 254.991Z" fill="black"/>
<path fill-rule="evenodd" clip-rule="evenodd" d="M206.608 255.471C204.469 256.385 204.902 259.031 208.603 267.954C209.613 270.336 210.478 272.427 210.55 272.596C210.598 272.74 210.983 273.004 211.367 273.148C213.002 273.821 214.807 271.442 216.514 266.365C217.451 263.526 218.004 260.57 217.739 259.558C217.499 258.644 216.321 257.515 215.6 257.515C214.759 257.515 213.942 258.26 213.266 259.654C212.93 260.303 212.617 260.855 212.545 260.88C212.473 260.88 212.233 260.351 211.992 259.702C210.839 256.454 208.528 254.652 206.606 255.469L206.608 255.471Z" fill="black"/>
<path fill-rule="evenodd" clip-rule="evenodd" d="M362.202 13.8816C361 14.9391 360.543 16.2638 360.543 18.6192C360.543 19.7249 360.495 20.6142 360.447 20.6142C360.375 20.6142 360.014 20.3979 359.63 20.1095C358.668 19.4365 356.478 18.6914 355.445 18.6914C354.315 18.6914 353.738 19.0279 353.282 19.8931C352.032 22.3234 354.003 25.0394 361.026 30.6664C363.045 32.2768 364.947 33.6495 365.259 33.7216C365.62 33.8177 366.029 33.7216 366.389 33.4091C367.158 32.7842 367.23 31.3421 366.894 24.102C366.629 18.1626 366.365 16.213 365.644 14.7949C364.755 13.0403 363.553 12.7279 362.204 13.8816H362.202ZM363.98 16.7204C364.413 18.3549 364.701 22.083 364.701 26.34V30.5008L361.886 28.3376C358.903 26.0756 355.947 23.2875 355.394 22.1819C354.985 21.4367 355.13 20.8599 355.731 20.8599C356.38 20.8599 359.098 22.2059 360.42 23.17C361.646 24.0833 362.463 24.1795 362.343 23.3863C362.079 21.8961 362.511 17.5911 363.064 16.4106C363.449 15.5694 363.689 15.6655 363.977 16.7231L363.98 16.7204Z" fill="black"/>
<path fill-rule="evenodd" clip-rule="evenodd" d="M231.72 20.8119C230.975 21.3887 230.567 22.8068 230.807 23.9151C231.504 26.9944 235.184 27.3549 236.146 24.4439C236.506 23.3623 236.242 22.1579 235.497 21.2445C234.944 20.5955 234.727 20.5234 233.502 20.5234C232.757 20.5234 231.939 20.6677 231.723 20.8119H231.72ZM233.715 21.8454C234.533 22.278 234.773 22.8789 234.436 23.7442C234.124 24.5855 233.571 24.7777 232.994 24.249C232.514 23.8163 232.369 22.6626 232.658 21.8668C232.826 21.386 232.85 21.386 233.715 21.8427V21.8454Z" fill="black"/>
<path fill-rule="evenodd" clip-rule="evenodd" d="M211.832 21.5091C211.616 21.8936 211.616 22.9031 211.808 25.5497C211.928 27.4726 212.121 30.3355 212.217 31.8737C212.337 34.2559 212.433 34.7366 212.842 35.1212C213.298 35.5298 213.322 35.5298 213.659 35.0731C213.875 34.7847 213.995 34.0156 213.995 32.934C213.995 30.2633 213.467 23.4105 213.178 22.2088C212.89 20.9829 212.265 20.6705 211.832 21.5117V21.5091Z" fill="black"/>
<path fill-rule="evenodd" clip-rule="evenodd" d="M201.996 37.1885C200.722 37.525 200.482 37.9817 201.371 38.3182C202.188 38.6307 208.008 38.6307 208.803 38.3182C209.549 38.0538 209.621 37.4769 208.972 37.1164C208.347 36.7799 203.321 36.852 201.996 37.1885Z" fill="black"/>
<path fill-rule="evenodd" clip-rule="evenodd" d="M217.074 37.0439C216.401 37.2121 216.546 38.0534 217.315 38.3418C218.228 38.7023 225.012 38.51 225.733 38.1255C226.358 37.7649 226.43 37.2362 225.877 37.0198C225.444 36.8516 217.699 36.8756 217.074 37.0439Z" fill="black"/>
<path fill-rule="evenodd" clip-rule="evenodd" d="M244.395 39.0899C244.275 39.2581 244.155 41.1329 244.107 43.2507C244.035 46.354 244.083 47.1952 244.371 47.5798C244.684 47.9643 244.78 47.9884 245.116 47.724C245.813 47.1231 245.573 39.7388 244.828 38.9937C244.684 38.8495 244.515 38.8736 244.395 39.0899Z" fill="black"/>
<path fill-rule="evenodd" clip-rule="evenodd" d="M212.601 40.1715C212.289 40.7724 212.048 48.0364 212.289 49.4545C212.529 50.8486 213.082 51.5216 213.611 51.089C213.923 50.8246 213.947 50.0074 213.827 45.5821C213.755 42.7192 213.587 40.2195 213.442 40.0513C213.13 39.6427 212.842 39.6908 212.601 40.1715Z" fill="black"/>
<path fill-rule="evenodd" clip-rule="evenodd" d="M238.167 49.3341C236.725 49.4543 235.881 49.6466 235.881 49.8629C235.881 50.3196 237.011 50.6561 239.008 50.8483C241.583 51.0887 242.712 50.8724 242.808 50.1513C242.857 49.8629 242.736 49.5745 242.568 49.5264C242.159 49.3822 239.08 49.238 238.167 49.3341Z" fill="black"/>
<path fill-rule="evenodd" clip-rule="evenodd" d="M246.994 49.3825C246.681 49.5027 246.489 49.719 246.561 49.8392C246.922 50.4161 250.89 50.8006 252.693 50.4401C253.51 50.2719 253.678 49.7671 253.029 49.5027C252.332 49.2143 247.595 49.1182 246.994 49.3825Z" fill="black"/>
<path fill-rule="evenodd" clip-rule="evenodd" d="M244.684 53.3991C244.611 53.7837 244.467 55.4662 244.395 57.1994C244.251 60.2065 244.251 60.3507 244.756 60.8074C245.549 61.4804 245.645 61.1199 245.837 57.2715C245.981 54.4086 245.957 53.8318 245.645 53.327C245.14 52.5819 244.876 52.6059 244.684 53.3991Z" fill="black"/>
<path fill-rule="evenodd" clip-rule="evenodd" d="M221.284 62.4178C221.043 62.8024 221.139 71.8691 221.404 72.8065C221.692 73.84 222.125 73.84 222.557 72.7825C222.894 72.0133 222.942 71.2202 222.822 67.9006C222.75 65.7133 222.557 63.5234 222.413 63.0187C222.149 62.1294 221.644 61.865 221.284 62.4178Z" fill="black"/>
<path fill-rule="evenodd" clip-rule="evenodd" d="M209.618 74.0826C208.272 74.2028 207.719 74.7075 208.272 75.2844C208.705 75.693 211.399 76.0535 214.115 76.0535C217.146 76.0295 218.805 75.1161 216.882 74.4912C215.945 74.2028 211.399 73.9384 209.618 74.0826Z" fill="black"/>
<path fill-rule="evenodd" clip-rule="evenodd" d="M225.781 74.7077C225.444 74.8759 225.18 75.1644 225.18 75.3566C225.18 75.9575 227.391 76.1738 230.975 75.9335C234.391 75.6691 235.208 75.3807 234.343 74.7317C233.718 74.275 226.67 74.251 225.781 74.7077Z" fill="black"/>
<path fill-rule="evenodd" clip-rule="evenodd" d="M220.875 78.6282C220.659 79.2051 220.731 88.0795 220.947 89.2573C221.163 90.3389 221.788 91.2282 222.101 90.8917C222.293 90.6994 222.221 79.3466 222.029 78.6496C221.861 78.1448 221.067 78.1208 220.875 78.6255V78.6282Z" fill="black"/>
<path fill-rule="evenodd" clip-rule="evenodd" d="M196.391 88.7526C195.165 89.041 194.492 91.976 195.333 93.274C196.607 95.2208 199.878 94.5719 200.527 92.2404C201.032 90.3897 200.215 89.1612 198.605 89.3775C197.907 89.4737 197.571 89.4016 197.499 89.1852C197.331 88.8007 196.946 88.6324 196.393 88.7526H196.391ZM198.845 91.4232C198.845 92.5769 197.138 93.0096 196.802 91.952C196.586 91.2309 196.85 90.9906 197.907 90.9906C198.653 90.9906 198.845 91.0867 198.845 91.4232Z" fill="black"/>
<path fill-rule="evenodd" clip-rule="evenodd" d="M161.611 79.2293C161.202 80.1427 161.803 80.7916 164.354 82.2124C167.553 83.991 169.596 85.556 172.603 88.5845C175.274 91.2791 177.317 94.0432 178.711 96.8581C179.408 98.2281 181.141 103.038 181.141 103.543C181.141 103.663 180.3 104.24 179.291 104.841C176.476 106.451 173.087 109.939 171.858 112.393C170.993 114.148 170.921 114.484 170.921 116.265C170.921 118.047 170.993 118.308 171.57 119.08C173.493 121.583 178.281 121.123 180.877 118.167C182.992 115.737 184.124 112.035 183.98 107.946L183.908 105.324L185.663 104.939C186.961 104.651 188.189 104.579 190.232 104.651C192.662 104.747 193.407 104.891 195.619 105.636C200.284 107.223 205.671 110.086 209.327 112.949C210.841 114.15 212.358 114.799 212.791 114.439C214.041 113.405 208.75 108.908 202.787 105.925C194.874 101.98 189.295 101.043 183.764 102.798C183.451 102.918 183.307 102.749 183.187 102.149C182.49 99.0453 180.492 94.6682 178.161 91.2551C176.502 88.8008 171.981 84.1352 169.479 82.2605C167.508 80.8183 163.323 78.6284 162.479 78.6284C162.094 78.6284 161.806 78.8207 161.614 79.2293H161.611ZM181.619 108.499C181.619 112.9 179.889 116.749 177.41 117.854C176.882 118.095 175.896 118.311 175.223 118.311C173.613 118.311 173.108 117.782 173.132 116.172C173.156 114.417 174.358 112.324 176.692 109.992C178.326 108.334 180.805 106.528 181.454 106.528C181.55 106.528 181.622 107.418 181.622 108.499H181.619Z" fill="black"/>
<path fill-rule="evenodd" clip-rule="evenodd" d="M49.8991 57.4875C49.4184 58.1124 48.6733 59.7495 47.784 62.2732C45.6929 68.1887 42.2772 75.7172 40.2795 78.8204C37.9935 82.4044 34.5805 86.1326 29.4582 90.6059C27.7036 92.1201 26.2588 93.4688 26.2588 93.5889C26.2588 93.6851 26.5953 93.7812 27.0279 93.7812C28.6864 93.7812 32.7751 90.8703 36.7196 86.9257C41.6977 81.8756 44.5125 77.0898 48.433 66.8427C49.4905 64.0519 49.9472 62.4896 50.2356 60.6148C50.5962 58.0644 50.476 56.7905 49.8991 57.4875Z" fill="black"/>
<path fill-rule="evenodd" clip-rule="evenodd" d="M55.9373 76.9939C55.3365 77.5467 54.1587 78.8686 53.3388 79.9289C50.0433 84.1378 46.7985 86.7363 39.3421 91.1855C33.2825 94.7935 32.2223 95.7069 34.0276 95.7069C35.2053 95.7069 37.4673 94.7214 41.2917 92.5556C47.2552 89.1639 51.4641 85.7722 54.7836 81.6861C58.0071 77.6936 58.8483 74.3019 55.9373 76.9965V76.9939Z" fill="black"/>
<path fill-rule="evenodd" clip-rule="evenodd" d="M11.7814 86.2525C11.5891 86.4928 11.3487 86.8053 11.2766 86.9255C11.0122 87.4062 8.00513 101.331 7.62056 103.881C7.40424 105.275 7.18791 106.648 7.11581 106.912C7.0437 107.393 6.85142 107.441 3.48377 107.561C-0.436699 107.706 -4.02068 108.258 -5.10228 108.883C-6.4002 109.652 -6.35212 110.998 -5.03017 111.674C-4.6456 111.89 -2.59992 112.539 -0.508826 113.164C1.58227 113.765 3.48377 114.462 3.74816 114.703C4.1808 115.135 4.18079 115.207 3.09918 118.719C0.572778 126.897 0.21225 129.42 1.53688 130.409C2.95498 131.466 3.99119 130.553 8.39237 124.277C10.0268 121.991 11.7119 119.731 12.1686 119.299L12.9858 118.506L14.4039 119.563C16.2787 121.005 20.728 123.964 22.1007 124.709C23.6389 125.503 25.1559 125.503 25.6846 124.685C26.3336 123.7 25.8288 122.594 22.99 118.89C20.1751 115.21 19.43 113.936 19.6463 113.263C19.7905 112.782 23.1101 109.847 26.6701 107.035C27.8719 106.098 28.9294 105.136 29.0042 104.944C29.6051 103.382 28.6437 102.538 26.5499 102.805C25.0837 102.973 18.0119 104.463 17.3149 104.728C16.9303 104.872 16.8822 104.752 16.8822 103.718C16.8822 101.675 14.8392 89.8418 14.0915 87.4596C13.5867 85.9213 12.5532 85.3685 11.7814 86.2578V86.2525ZM13.9927 98.4225C14.9781 104.41 15.579 106.528 16.3027 106.528C16.495 106.528 16.7354 106.287 16.8555 105.999C16.9757 105.663 17.0959 105.59 17.2161 105.759C17.4324 106.119 20.4155 106.143 22.6748 105.783C23.6122 105.639 24.4054 105.566 24.4534 105.614C24.4775 105.639 23.1796 106.816 21.5184 108.189C16.0357 112.758 15.9155 113.479 19.9081 118.794C22.747 122.57 22.5547 122.282 22.1461 122.041C20.9683 121.32 16.5431 118.313 15.4348 117.448C12.3315 115.018 11.4422 115.597 5.69502 123.796C4.37306 125.647 3.26478 127.092 3.21671 126.995C3.12057 126.683 4.00987 123.267 5.23568 119.347C6.38939 115.643 6.48553 114.801 5.93271 113.744C5.42796 112.758 4.37042 112.206 1.14698 111.241C-0.415335 110.785 -1.73996 110.376 -1.78803 110.304C-1.8361 110.256 -0.610315 110.04 0.954668 109.799C2.49295 109.583 4.70691 109.174 5.88465 108.91C7.90364 108.429 7.99979 108.381 8.55527 107.42C9.27634 106.194 10.4541 101.504 12.3315 92.4617C12.5959 91.1397 12.644 91.0676 12.8122 91.7166C12.9084 92.1011 13.4612 95.1323 13.99 98.4278L13.9927 98.4225Z" fill="black"/>
<path fill-rule="evenodd" clip-rule="evenodd" d="M273.35 96.3775C272.004 97.2668 272.436 101.115 274.215 103.882C276.525 107.466 280.659 109.605 287.563 110.785C289.969 111.17 291.483 111.218 304.158 111.146C318.66 111.074 321.763 111.194 325.203 112.059C330.806 113.453 332.01 114.658 333.236 120.285C333.332 120.742 333.596 121.006 333.981 121.102C335.063 121.366 335.303 120.886 335.303 118.407C335.303 115.929 335.519 115.136 336.457 114.126C337.49 113.021 339.824 111.6 341.483 111.095C344.249 110.23 348.843 110.014 355.744 110.398C359.111 110.591 364.594 110.735 367.89 110.711C373.589 110.711 374.046 110.687 376.476 110.062C382.367 108.596 384.509 106.862 385.446 102.798C385.951 100.634 385.951 99.2377 385.446 98.084C384.629 96.3054 384.149 96.9063 383.668 100.247C383.115 103.927 382.298 105.418 380.156 106.475C378.954 107.052 376.524 107.845 374.625 108.254C372.726 108.662 363.441 108.662 355.843 108.254C346.8 107.773 341.678 108.35 338.31 110.249C336.628 111.186 334.606 112.895 334.125 113.809L333.789 114.434L332.731 113.256C331.409 111.79 329.484 110.802 326.335 110.008C321.838 108.879 320.684 108.807 306.447 108.879C298.318 108.903 292.162 108.831 290.693 108.686C285.138 108.085 280.328 106.496 278.114 104.477C276.36 102.915 275.54 101.278 274.939 98.2977C274.602 96.5671 274.05 95.8914 273.353 96.3748L273.35 96.3775Z" fill="black"/>
<path fill-rule="evenodd" clip-rule="evenodd" d="M162.434 226.01C162.313 226.37 162.073 228.248 161.953 230.17C161.809 232.093 161.665 233.802 161.616 233.947C161.544 234.115 161.208 234.259 160.823 234.259C159.742 234.259 158.636 234.74 158.489 235.245C158.225 236.062 158.778 236.422 160.292 236.422H161.662L161.806 243.686C161.974 251.095 162.239 254.772 162.719 255.977C163.104 256.89 163.753 257.226 164.258 256.722C164.618 256.361 164.618 255.76 164.45 250.878C164.354 247.895 164.258 243.374 164.258 240.874V236.305L166.18 236.161C168.515 235.992 168.947 235.824 168.947 235.079C168.947 234.069 167.986 233.685 165.964 233.853L164.21 234.021L164.089 230.101C164.017 227.962 163.873 226.012 163.777 225.772C163.513 225.123 162.719 225.267 162.431 226.012L162.434 226.01Z" fill="black"/>
<path fill-rule="evenodd" clip-rule="evenodd" d="M116.52 229.446C116.016 230.383 115.991 232.309 116.376 237.768C116.592 240.799 117.001 246.834 117.241 251.212C117.722 259.461 118.155 262.129 119.068 262.805C120.174 263.622 123.517 263.334 125.803 262.252C130.204 260.161 131.382 254.916 128.186 251.695C127.296 250.806 125.178 249.652 124.433 249.652C123.688 249.652 123.736 249.339 124.578 248.426C126.428 246.383 127.2 243.881 127.2 240.032C127.2 235.944 126.239 233.129 124.145 231.206C122.799 229.956 121.859 229.475 120.561 229.331C116.833 228.947 116.785 228.947 116.52 229.451V229.446ZM120.969 231.852C123.688 233.03 125.106 236.374 124.89 241.015C124.77 243.494 124.145 245.32 122.871 246.834C122.222 247.628 120.2 249.169 119.84 249.169C119.744 249.169 119.648 248.375 119.648 247.414C119.648 244.046 119.023 235.58 118.542 232.119L118.374 231.086L119.191 231.254C119.648 231.35 120.441 231.615 120.969 231.855V231.852ZM122.532 251.692C124.334 251.885 126.26 252.846 126.981 253.93C127.678 254.94 127.798 256.721 127.245 257.779C126.404 259.413 124.166 260.666 121.811 260.882L120.441 261.026L120.272 258.764C120.2 257.514 120.056 255.276 119.984 253.81L119.816 251.091L120.513 251.308C120.897 251.428 121.811 251.596 122.532 251.692Z" fill="black"/>
<path fill-rule="evenodd" clip-rule="evenodd" d="M150.528 240.968C149.086 241.857 148.266 243.566 148.266 245.753C148.266 248.208 149.42 249.722 152.475 251.26C154.085 252.077 154.713 252.702 154.905 253.618C155.193 255.205 154.16 256.265 151.61 257.01C150.744 257.274 150.432 257.491 150.432 257.827C150.432 258.981 152.619 259.39 154.232 258.572C156.155 257.587 157.167 256.046 157.167 254.099C157.167 251.912 156.085 250.563 153.102 249.049C151.035 248.015 150.432 247.294 150.432 245.874C150.432 244.6 151.201 243.011 151.922 242.77C152.331 242.65 152.595 242.794 153.244 243.539C153.677 244.068 154.205 244.669 154.398 244.909C154.686 245.246 154.878 245.27 155.239 245.078C156.272 244.525 155.455 241.998 153.893 240.989C153.004 240.388 151.487 240.388 150.525 240.965L150.528 240.968Z" fill="black"/>
<path fill-rule="evenodd" clip-rule="evenodd" d="M138.718 242.314C137.012 243.035 135.159 245.705 134.582 248.229C133.885 251.188 134.558 255.133 136.072 257.152C137.033 258.45 139.031 259.51 140.497 259.51C143.408 259.51 146.052 256.767 145.235 254.604C144.994 253.955 144.658 254.147 143.12 255.782C141.798 257.2 141.557 257.344 140.689 257.344C139.512 257.344 138.331 256.647 137.682 255.613C137.418 255.181 137.202 254.748 137.202 254.652C137.202 254.58 137.778 254.195 138.475 253.787C140.278 252.753 142.204 250.78 142.997 249.073C143.886 247.222 143.958 244.936 143.213 243.686C142.252 242.124 140.422 241.571 138.716 242.316L138.718 242.314ZM141.149 244.501C141.966 245.294 141.485 247.7 140.187 249.239C139.49 250.08 136.94 252.27 136.675 252.294C136.291 252.294 136.507 249.647 136.988 248.085C137.348 246.859 137.733 246.21 138.622 245.294C139.824 244.068 140.497 243.852 141.149 244.501Z" fill="black"/>
<path fill-rule="evenodd" clip-rule="evenodd" d="M106.321 99.3602C106.153 99.6726 106.105 100.418 106.177 101.211C106.321 102.893 107.235 106.357 107.691 106.934C108.004 107.343 108.052 107.343 108.364 106.934C109.157 105.925 108.989 100.706 108.124 99.3575C107.667 98.6605 106.706 98.6605 106.321 99.3575V99.3602Z" fill="black"/>
<path fill-rule="evenodd" clip-rule="evenodd" d="M123.229 104.434C122.748 104.963 122.388 106.141 121.883 109.22C121.715 110.182 122.027 110.59 122.58 110.134C122.772 109.965 123.325 109.076 123.782 108.163C124.671 106.384 124.887 104.723 124.335 104.17C123.926 103.761 123.83 103.81 123.229 104.434Z" fill="black"/>
<path fill-rule="evenodd" clip-rule="evenodd" d="M107.09 114.463C102.161 115.785 98.0478 119.897 96.6056 124.923C95.6202 128.267 96.2691 131.827 98.4083 134.855C99.8264 136.874 101.055 137.959 103.194 139.088C109.518 142.408 117.263 140.266 121.304 134.062C124.455 129.229 123.806 122.012 119.861 117.78C118.539 116.385 116.95 115.494 115.076 115.157C114.331 115.013 113.465 114.748 113.177 114.532C112.263 113.931 109.16 113.883 107.093 114.46L107.09 114.463ZM112.79 115.905C114.785 116.241 117.96 118.215 119.066 119.849C120.844 122.448 121.688 126.537 121.012 129.397C119.763 134.687 114.953 138.512 109.588 138.512C104.222 138.512 99.2469 134.519 98.3308 129.301C97.6098 125.02 100.905 119.417 105.403 117.275C106.388 116.818 107.785 116.313 108.506 116.169C109.227 116.025 110.044 115.857 110.309 115.809C111.126 115.664 111.222 115.664 112.787 115.905H112.79Z" fill="black"/>
<path fill-rule="evenodd" clip-rule="evenodd" d="M86.6736 115.232C86.241 115.665 86.3131 116.506 86.8419 116.963C87.5389 117.588 89.3442 118.044 91.7718 118.189C95.7884 118.453 95.4038 117.419 90.9306 115.878C88.0436 114.893 87.1543 114.749 86.6736 115.229V115.232Z" fill="black"/>
<path fill-rule="evenodd" clip-rule="evenodd" d="M134.363 118.119C132.752 118.695 130.202 120.933 130.538 121.462C130.899 122.039 133.185 121.558 134.771 120.549C137.057 119.131 136.718 117.253 134.363 118.119Z" fill="black"/>
<path fill-rule="evenodd" clip-rule="evenodd" d="M87.9472 133.873C83.4018 134.882 81.479 135.94 82.3202 136.976C83.0172 137.841 86.0965 137.024 88.1876 135.438C89.9902 134.068 89.8941 133.443 87.9472 133.876V133.873Z" fill="black"/>
<path fill-rule="evenodd" clip-rule="evenodd" d="M129.192 136.252C129.192 137.045 132.897 139.932 134.387 140.293C135.108 140.485 135.685 140.1 135.685 139.476C135.685 138.73 133.906 137.409 131.884 136.613C129.673 135.771 129.19 135.699 129.19 136.252H129.192Z" fill="black"/>
<path fill-rule="evenodd" clip-rule="evenodd" d="M116.926 147.125C116.926 148.759 118.369 152.343 119.114 152.584C120.412 152.992 120.7 151.045 119.618 149.312C118.777 148.014 117.431 146.449 117.14 146.449C117.02 146.449 116.924 146.762 116.924 147.122L116.926 147.125Z" fill="black"/>
<path fill-rule="evenodd" clip-rule="evenodd" d="M96.6296 148.134C95.3557 149.552 94.031 151.646 94.1272 152.127C94.2714 152.848 94.9685 153.112 95.7136 152.704C96.5067 152.271 98.1678 149.096 98.1678 147.942C98.1678 146.884 97.7112 146.956 96.6296 148.134Z" fill="black"/>
<path fill-rule="evenodd" clip-rule="evenodd" d="M224.021 151.862C221.206 152.487 217.673 154.797 215.987 157.105L215.315 158.018L214.834 157.105C213.752 154.99 211.442 153.232 208.798 152.559C207.476 152.223 206.996 152.199 205.695 152.439C199.852 153.521 195.643 159.295 196.869 164.561C197.085 165.451 197.421 166.532 197.638 166.919C197.83 167.328 197.974 167.689 197.926 167.713C197.878 167.737 197.205 167.881 196.412 168.049C194.15 168.482 190.881 170.236 189.148 171.897C185.227 175.746 183.353 182.046 184.963 186.159C186.237 189.478 189.893 191.906 193.597 191.906C194.342 191.906 194.607 192.002 194.51 192.194C192.152 197.821 193.741 202.919 198.551 205.253C203.938 207.876 208.772 206.551 211.971 201.597C212.5 200.756 213.004 200.083 213.052 200.083C213.101 200.083 213.629 200.42 214.23 200.828C216.468 202.367 220.074 203.643 222.792 203.859C228.419 204.292 232.724 201.453 234.169 196.355C234.409 195.562 234.602 194.889 234.626 194.865C234.65 194.841 235.347 195.081 236.188 195.418C238.498 196.355 240.012 196.523 242.392 196.091C247.923 195.129 252.805 191.906 254.778 187.865C255.475 186.447 255.571 186.038 255.571 184.209C255.571 181.538 254.874 179.928 252.805 177.957L251.387 176.587L252.204 174.568C253.55 171.224 253.838 169.782 253.718 166.775C253.574 163.792 253.117 162.302 251.723 160.259C250.738 158.865 248.572 157.156 246.865 156.483C244.026 155.353 239.842 155.762 236.212 157.516C235.131 158.045 234.217 158.478 234.193 158.478C234.145 158.478 233.736 157.684 233.256 156.699C231.261 152.682 227.989 150.976 224.021 151.865V151.862ZM228.398 154.245C229.936 154.966 230.321 155.422 231.645 158.069C233.088 160.98 233.376 161.076 236.383 159.727C239.703 158.237 240.977 157.925 243.527 158.045C245.113 158.117 245.981 158.285 246.678 158.646C248.361 159.535 249.854 161.052 250.695 162.735C251.392 164.153 251.488 164.609 251.56 166.727C251.704 169.782 251.392 171.176 249.878 174.4C248.484 177.359 248.484 177.84 249.902 178.633C252.861 180.291 254.207 184.115 252.837 186.954C252.092 188.469 250.118 190.586 248.387 191.716C246.296 193.062 242.833 194.146 240.426 194.17C238.431 194.194 237.66 193.93 234.968 192.32C234.15 191.839 234.03 191.839 233.694 192.151C233.501 192.368 233.045 193.497 232.708 194.678C231.362 199.367 229.437 201.29 225.324 202.038C222.341 202.591 218.663 201.533 215.344 199.223C212.553 197.276 212.217 197.3 210.823 199.68C209.404 202.134 208.44 203.12 206.758 203.961C205.316 204.658 205.075 204.706 203.342 204.61C200.215 204.418 197.403 202.711 196.126 200.233C195.573 199.199 195.477 198.718 195.477 197.081C195.501 195.471 195.621 194.843 196.27 193.281C196.991 191.526 197.015 191.358 196.679 190.827C196.27 190.202 195.742 190.082 193.167 189.913C191.148 189.769 189.487 188.952 188.069 187.363C185.518 184.548 185.759 179.979 188.622 175.674C190.496 172.859 192.999 171.176 196.463 170.335C199.806 169.542 199.999 169.47 200.263 168.749C200.455 168.196 200.383 167.883 199.95 167.09C198.58 164.732 198.268 162.04 199.157 160.043C199.878 158.408 201.9 156.435 203.727 155.545C207.407 153.791 210.486 154.896 213.491 159.081C214.284 160.163 214.548 160.403 215.053 160.403C215.245 160.403 216.399 159.466 217.603 158.288C221.836 154.199 225.444 152.853 228.401 154.247L228.398 154.245Z" fill="black"/>
<path fill-rule="evenodd" clip-rule="evenodd" d="M9.952 173.433C9.54339 173.841 9.6155 175.791 10.1202 178.363C10.4087 179.877 10.4567 180.601 10.2885 180.625C10.1443 180.649 9.39916 180.625 8.63002 180.601C6.51489 180.529 5.38257 181.562 6.4161 182.62C6.92084 183.125 11.1297 184.447 12.2113 184.447C12.8843 184.447 13.0526 184.519 12.9564 184.807C12.8843 184.999 12.6921 186.297 12.5238 187.694C12.1873 190.773 12.4998 194.501 13.3891 198.035C14.5188 202.532 17.4778 207.558 20.6772 210.421C22.5039 212.079 26.1119 214.462 28.8066 215.808L31.0178 216.913L30.8256 217.803C30.465 219.557 30.3208 222.588 30.5612 223.237C30.9217 224.151 31.5226 224.319 32.0754 223.67C32.4359 223.189 32.508 222.684 32.508 220.254V217.415L33.2051 217.656C33.5896 217.8 34.8635 218.088 36.0439 218.329C37.9427 218.713 38.1591 218.809 38.2312 219.338C38.4956 221.405 39.7214 223.403 40.7095 223.403C41.3104 223.403 41.3104 222.514 40.6855 220.756C40.4211 220.035 40.2288 219.314 40.2048 219.194C40.2048 219.05 41.5267 218.93 43.6445 218.906C45.9787 218.881 47.4689 218.737 48.3822 218.473C49.1033 218.281 50.6442 217.944 51.7739 217.752C54.4926 217.319 55.478 216.887 56.8721 215.514C58.819 213.615 59.2062 212.387 58.146 211.401C57.6172 210.896 57.1846 210.824 54.514 210.632C51.603 210.416 49.2715 210.031 47.8294 209.478L47.1804 209.214L47.6611 208.445C47.9255 208.012 48.1419 207.411 48.1419 207.123C48.1419 205.993 48.3582 205.849 49.9205 205.849C51.8193 205.849 53.0237 205.2 52.9036 204.214C52.8555 203.758 52.7113 203.59 52.4229 203.638C52.1825 203.686 51.9902 203.565 51.9902 203.373C51.9902 203.205 51.3172 202.46 50.476 201.739C48.5772 200.08 47.3727 198.78 45.6181 196.352C42.8033 192.48 40.0873 190.413 37.3926 190.028L36.2389 189.86L35.9264 188.538C35.1813 185.266 34.7727 184.017 33.8353 182.046C31.333 176.947 27.1241 174.445 22.3624 175.262C20.1003 175.647 17.9852 176.704 16.4469 178.173C15.4134 179.183 15.149 179.327 15.0529 178.966C14.5001 177.284 13.13 174.998 12.1419 174.133C11.0122 173.123 10.4594 172.931 9.95467 173.436L9.952 173.433ZM12.9831 178.795L14.1849 181.082L13.7523 182.211C13.5119 182.86 13.2475 183.341 13.1754 183.293C12.5986 183.052 11.517 182.283 11.7333 182.283C11.8775 182.283 12.1419 181.971 12.2861 181.586C12.5265 181.033 12.5024 180.529 12.0938 178.795C11.3728 175.764 11.3968 175.764 12.9831 178.795ZM26.3309 177.474C29.2899 178.387 31.5733 181.178 32.9914 185.603C33.376 186.757 33.7365 188.201 33.8327 188.802L34.0009 189.908L32.4386 190.653C30.3235 191.638 28.8306 193.059 27.8692 195.006C26.403 197.989 26.7636 202.463 28.6864 204.962C30.2968 207.053 33.1116 208.859 36.6715 210.06C38.8828 210.781 39.6066 210.709 40.6641 209.652C41.0968 209.219 41.4813 209.003 41.6736 209.099C41.8178 209.219 42.611 209.532 43.4282 209.82C44.2454 210.133 45.5433 210.637 46.3632 210.998C48.238 211.791 51.4855 212.344 54.3003 212.344C55.6463 212.344 56.5863 212.44 56.7065 212.608C56.9709 213.041 54.8558 214.966 53.2908 215.735C52.041 216.312 51.3199 216.481 48.8416 216.673C45.3057 216.961 40.0152 216.649 36.6956 215.976C32.4386 215.087 27.1481 212.536 23.3238 209.508C17.4805 204.842 14.1849 197.241 14.5454 189.136C14.8339 182.305 17.144 178.675 22.0018 177.351C23.7324 176.894 24.5282 176.918 26.3309 177.471V177.474ZM38.9816 192.744C40.5439 193.609 41.8205 194.835 44.1279 197.746C46.2671 200.441 47.4475 201.643 49.3223 203.061L50.6442 204.046L48.9617 204.166C46.9908 204.311 46.6997 204.455 46.6997 205.344C46.6997 205.705 46.5795 206.354 46.4353 206.786C45.9306 208.204 44.7528 208.373 42.3947 207.315C40.568 206.498 39.9644 206.594 39.5558 207.796C39.2914 208.589 39.2434 208.613 38.0656 208.589C36.311 208.541 33.0876 206.906 31.3063 205.149C29.5757 203.443 28.9 201.782 28.9 199.282C28.9 193.847 34.4309 190.263 38.9763 192.741L38.9816 192.744Z" fill="black"/>
<path fill-rule="evenodd" clip-rule="evenodd" d="M23.3719 181.394C22.5306 181.803 22.4104 183.052 23.1796 183.581C23.9007 184.086 24.4775 184.062 25.0543 183.485C25.7033 182.836 25.6793 181.923 25.0063 181.466C24.3573 181.009 24.165 181.009 23.3719 181.394Z" fill="black"/>
<path fill-rule="evenodd" clip-rule="evenodd" d="M308.148 150.801C307.211 152.34 307.283 154.65 308.389 158.041C308.965 159.796 309.494 160.712 309.807 160.52C310.167 160.303 310.119 150.708 309.759 150.347C309.254 149.843 308.605 150.035 308.148 150.804V150.801Z" fill="black"/>
<path fill-rule="evenodd" clip-rule="evenodd" d="M319.453 155.058C318.323 156.236 316.013 159.82 315.701 160.806C315.388 161.887 316.47 161.382 318.419 159.556C321.835 156.332 322.869 153.905 320.802 153.905C320.657 153.905 320.057 154.433 319.456 155.058H319.453Z" fill="black"/>
<path fill-rule="evenodd" clip-rule="evenodd" d="M296.582 160.277C296.293 160.637 296.293 160.782 296.606 161.31C297.111 162.224 298.601 162.969 301.319 163.669C303.605 164.245 304.278 164.269 304.278 163.789C304.278 163.452 302.524 162.274 300.286 161.142C297.928 159.94 297.038 159.724 296.582 160.277Z" fill="black"/>
<path fill-rule="evenodd" clip-rule="evenodd" d="M308.965 164.678C307.98 165.303 306.922 167.301 306.922 168.574C306.922 170.738 308.701 172.23 311.275 172.23C315.989 172.23 317.311 167.132 313.198 164.87C311.78 164.101 310.047 164.029 308.965 164.678ZM311.564 166.673C313.15 167.49 313.631 168.716 312.646 169.392C311.516 170.209 309.326 169.632 309.326 168.526C309.326 167.853 310.239 166.411 310.672 166.411C310.888 166.411 311.273 166.531 311.561 166.676L311.564 166.673Z" fill="black"/>
<path fill-rule="evenodd" clip-rule="evenodd" d="M319.429 167.926C319.429 168.767 323.806 170.5 325.921 170.5C327.363 170.5 328.279 169.923 328.012 169.202C327.844 168.745 323.924 167.832 321.424 167.688C319.693 167.568 319.429 167.592 319.429 167.928V167.926Z" fill="black"/>
<path fill-rule="evenodd" clip-rule="evenodd" d="M298.192 172.663C294.32 174.225 292.998 175.189 293.358 176.127C293.599 176.728 294.584 176.848 295.74 176.391C297.639 175.67 302.113 172.519 302.113 171.918C302.113 171.437 300.43 171.75 298.192 172.663Z" fill="black"/>
<path fill-rule="evenodd" clip-rule="evenodd" d="M315.34 175.334C315.34 175.742 316.975 178.076 317.987 179.134C319.092 180.264 320.225 180.889 320.946 180.792C321.907 180.648 321.715 179.807 320.345 178.314C318.422 176.199 315.343 174.37 315.343 175.331L315.34 175.334Z" fill="black"/>
<path fill-rule="evenodd" clip-rule="evenodd" d="M307.355 177.161C306.057 178.603 303.723 184.208 303.843 185.506C303.939 186.588 304.781 186.636 305.55 185.602C306.631 184.112 308.124 179.447 308.124 177.497C308.124 176.656 307.884 176.56 307.355 177.161Z" fill="black"/>
<path fill-rule="evenodd" clip-rule="evenodd" d="M395.627 142.283C394.978 143.004 394.906 144.641 395.338 148.799C395.867 153.994 396.877 157.842 397.793 158.13C398.321 158.323 398.393 157.121 398.129 152.864C397.961 150.578 397.793 147.357 397.696 145.696C397.6 143.509 397.456 142.569 397.192 142.256C396.735 141.727 396.11 141.727 395.629 142.28L395.627 142.283Z" fill="black"/>
<path fill-rule="evenodd" clip-rule="evenodd" d="M404.838 160.344C402.119 160.945 400.869 161.426 400.869 161.834C400.869 162.123 402.335 162.195 409.287 162.363C418.738 162.58 419.604 162.507 419.459 161.378C419.387 160.825 419.219 160.681 418.306 160.464C417.705 160.32 414.89 160.128 412.054 160.032C407.508 159.912 406.643 159.96 404.838 160.344Z" fill="black"/>
<path fill-rule="evenodd" clip-rule="evenodd" d="M379.512 162.294C378.31 162.51 377.806 163.039 377.998 163.832C378.118 164.289 378.359 164.481 379.007 164.601C380.546 164.89 390.36 164.529 392.692 164.12C396.444 163.423 396.252 162.702 392.163 162.294C389.444 162.029 380.858 162.029 379.512 162.294Z" fill="black"/>
<path fill-rule="evenodd" clip-rule="evenodd" d="M398.249 168.017C397.865 168.642 397.216 181.509 397.528 182.326C397.769 182.999 398.97 182.855 399.475 182.086C399.86 181.509 399.908 180.836 399.884 176.242C399.884 171.841 399.812 170.832 399.403 169.531C398.97 168.065 398.562 167.536 398.249 168.017Z" fill="black"/>
<path fill-rule="evenodd" clip-rule="evenodd" d="M135.928 174.348C134.702 174.661 134.486 175.118 134.486 177.476C134.486 181.036 135.567 193.518 136.072 195.633C136.192 196.114 137.178 196.595 138.622 196.883C139.56 197.051 140.449 196.787 140.738 196.234C141.05 195.633 141.363 193.035 141.699 188.177C141.843 186.062 142.108 182.55 142.324 180.384C142.709 176.199 142.588 175.069 141.699 174.589C141.098 174.276 136.937 174.084 135.928 174.348ZM140.617 176.271C140.714 176.415 140.617 178.653 140.401 181.273C140.209 183.872 139.896 188.009 139.752 190.46C139.608 192.915 139.44 194.982 139.392 195.054C139.344 195.15 138.863 195.27 138.334 195.318L137.373 195.414V193.104C137.373 190.893 137.252 189.064 136.555 180.477C136.363 178.215 136.267 176.317 136.339 176.196C136.507 175.932 140.452 176.004 140.62 176.269L140.617 176.271Z" fill="black"/>
<path fill-rule="evenodd" clip-rule="evenodd" d="M115.004 177.377C112.213 178.122 111.347 178.603 111.083 179.54C110.891 180.165 111.396 181.271 115.556 189.688C121.087 200.774 122.217 202.579 123.013 201.498C123.181 201.282 123.734 200.969 124.239 200.825C124.767 200.705 125.488 200.272 125.873 199.936C127.027 198.806 126.882 198.013 123.926 190.652C122.484 187.044 120.919 182.86 120.438 181.345C119.309 177.833 119.044 177.353 118.104 177.016C117.671 176.872 117.335 176.752 117.311 176.776C117.287 176.776 116.253 177.064 115.001 177.377H115.004ZM118.876 183.124C119.597 185.239 121.21 189.4 122.436 192.383C123.782 195.727 124.599 197.986 124.503 198.274C124.431 198.539 124.046 199.116 123.662 199.572L122.965 200.39L122.724 199.789C121.955 197.746 119.309 192.14 116.52 186.633C114.766 183.145 113.345 180.261 113.369 180.237C113.585 180.021 116.641 179.204 117.049 179.228C117.434 179.276 117.77 179.949 118.876 183.124Z" fill="black"/>
<path fill-rule="evenodd" clip-rule="evenodd" d="M96.9421 191.977C94.851 193.78 93.5985 195.153 93.5985 195.657C93.5985 196.426 94.1513 196.979 97.2546 199.313C101.055 202.176 103.098 203.883 107.86 208.092C109.831 209.846 111.804 211.459 112.285 211.724C113.102 212.156 113.126 212.156 113.727 211.7C114.328 211.267 116.446 208.404 116.446 208.02C116.446 207.923 115.076 206.553 113.39 204.988C108.893 200.804 104.901 196.691 103.29 194.6C101.103 191.761 99.8504 190.463 99.2496 190.463C98.9371 190.463 97.9516 191.112 96.9395 191.977H96.9421ZM101.343 194.744C103.798 197.943 108.079 202.537 111.444 205.613L114.234 208.14L113.634 208.909C113.297 209.342 112.961 209.702 112.864 209.702C112.792 209.702 110.17 207.563 107.069 204.988C103.966 202.39 100.117 199.289 98.5311 198.085C96.9448 196.883 95.5962 195.874 95.524 195.799C95.3558 195.655 98.9398 192.383 99.2763 192.383C99.4205 192.383 100.358 193.441 101.343 194.741V194.744Z" fill="black"/>
<path fill-rule="evenodd" clip-rule="evenodd" d="M283.754 260.548C283.202 261.101 283.418 261.87 284.62 263.676C288.083 268.894 293.326 280.006 294.744 285.081C295.008 286.042 295.225 286.931 295.225 287.051C295.225 287.148 294.768 287.172 294.191 287.1C291.328 286.667 289.429 289.311 289.766 293.183C289.958 295.202 290.944 297.2 292.1 297.993C293.927 299.243 296.429 298.185 297.583 295.659C299.025 292.532 298.448 287.722 295.804 280.508C294.819 277.838 290.61 269.18 288.612 265.743C287.867 264.445 287.29 263.336 287.338 263.312C287.507 263.144 292.509 263.913 293.759 264.274C296.886 265.163 299.169 266.968 299.89 269.084C300.107 269.732 300.419 271.562 300.539 273.148C300.828 276.324 301.212 277.597 301.885 277.597C302.702 277.597 303.015 276.66 303.111 273.989C303.327 268.314 301.765 265.163 297.7 262.976C295.705 261.918 293.251 261.317 289.21 260.885C287.288 260.692 285.338 260.476 284.881 260.38C284.353 260.308 283.92 260.356 283.752 260.548H283.754Z" fill="black"/>
<path fill-rule="evenodd" clip-rule="evenodd" d="M356.2 197.292C355.576 197.629 354.831 198.254 354.59 198.686C353.196 200.972 354.951 203.664 357.838 203.664C359.905 203.664 361.325 202.462 361.518 200.585C361.71 198.374 360.628 197.073 358.39 196.809C357.597 196.713 357.092 196.833 356.203 197.29L356.2 197.292ZM358.871 198.927C360.361 200.273 358.511 202.27 356.924 201.018C356.107 200.369 356.107 200.128 357.02 199.023C357.79 198.109 357.934 198.085 358.871 198.927Z" fill="black"/>
<path fill-rule="evenodd" clip-rule="evenodd" d="M358.655 207.056C358.246 207.849 358.487 209.342 360.578 218.289C361.635 222.738 362.669 227.355 362.912 228.557C363.537 231.901 364.474 233.343 365.174 232.069C365.799 230.867 365.078 226.442 362.287 214.609C360.532 207.104 360.388 206.696 359.568 206.599C359.135 206.551 358.871 206.672 358.655 207.056Z" fill="black"/>
<path fill-rule="evenodd" clip-rule="evenodd" d="M333.498 209.895C332.32 210.76 331.743 211.914 331.743 213.479C331.743 215.044 332.464 216.101 333.906 216.823C336.529 218.169 339.533 216.847 340.158 214.104C340.278 213.599 340.326 212.806 340.23 212.373C340.062 211.388 338.524 209.679 337.8 209.679C337.536 209.679 337.223 209.558 337.151 209.438C337.079 209.294 336.43 209.198 335.733 209.198C334.699 209.198 334.267 209.342 333.495 209.895H333.498ZM337.49 211.722C337.947 212.25 338.235 212.851 338.235 213.236C338.235 214.486 336.817 215.447 335.468 215.111C334.723 214.918 333.906 214.053 333.906 213.476C333.906 212.683 334.579 211.674 335.396 211.289C336.502 210.736 336.646 210.76 337.487 211.722H337.49Z" fill="black"/>
<path fill-rule="evenodd" clip-rule="evenodd" d="M341.747 219.418C341.531 219.635 341.363 219.947 341.363 220.115C341.363 220.548 342.396 221.918 344.826 224.709C345.98 226.031 348.795 229.278 351.078 231.925C355.912 237.504 355.984 237.576 356.898 237.648C357.571 237.696 357.595 237.648 357.571 236.687C357.546 235.485 357.162 234.908 351.895 228.798C347.422 223.603 343.357 219.37 342.66 219.178C342.348 219.106 341.987 219.202 341.747 219.418Z" fill="black"/>
<path fill-rule="evenodd" clip-rule="evenodd" d="M321.856 237.408C320.655 238.033 319.717 239.547 319.717 240.896C319.717 242.722 321.592 244.552 323.469 244.552C324.335 244.552 325.948 243.806 326.525 243.158C327.63 241.932 327.919 239.766 327.174 238.324C326.404 236.761 323.902 236.353 321.859 237.41L321.856 237.408ZM325.296 238.706C326.017 239.355 325.873 240.821 325.032 241.689C323.758 242.939 321.88 242.434 321.88 240.823C321.88 240.006 322.433 239.357 323.683 238.708C324.596 238.204 324.741 238.204 325.293 238.708L325.296 238.706Z" fill="black"/>
<path fill-rule="evenodd" clip-rule="evenodd" d="M330.707 239.907C330.346 239.955 329.938 240.244 329.793 240.508C329.553 240.941 329.601 241.109 330.01 241.446C330.563 241.878 331.404 241.998 338.812 242.888C341.194 243.152 344.006 243.537 345.064 243.729C346.146 243.921 347.59 244.065 348.287 244.065C349.369 244.065 349.537 243.993 349.537 243.609C349.537 243.056 348.504 242.263 347.179 241.806C345.953 241.373 339.362 240.292 335.946 239.979C333.3 239.739 331.978 239.715 330.704 239.907H330.707Z" fill="black"/>
<path fill-rule="evenodd" clip-rule="evenodd" d="M10.4087 254.7C8.09857 255.109 7.73804 255.806 7.73804 260.039C7.73804 266.002 8.24279 276.658 8.57929 277.427C9.10807 278.701 9.92528 278.821 15.0235 278.388C17.4297 278.172 21.4677 277.884 23.9701 277.764C26.4965 277.619 28.7318 277.451 28.9721 277.379C29.9816 277.066 30.1739 276.057 30.4143 269.105C30.6546 262.202 30.4383 257.176 29.8614 256.479C29.549 256.118 28.9962 255.758 27.4552 254.988C26.7101 254.628 25.7247 254.556 19.1576 254.532C15.0689 254.484 11.1244 254.58 10.4033 254.7H10.4087ZM28.2778 258.092C28.4701 259.726 28.4701 273.507 28.2778 274.687L28.1095 275.6H23.3959C20.8214 275.6 16.9277 275.769 14.7618 275.985C12.5745 276.201 10.7452 276.273 10.625 276.177C10.2885 275.817 9.85583 257.563 10.1683 257.178C10.3846 256.914 12.0671 256.842 19.2831 256.842H28.1095L28.2778 258.092Z" fill="black"/>
<path fill-rule="evenodd" clip-rule="evenodd" d="M23.9006 261.048C23.2516 261.528 21.8575 263.55 20.5089 266.026C19.932 267.059 19.4513 267.901 19.4032 267.901C19.3792 267.901 18.7783 266.963 18.0572 265.785C16.4469 263.163 15.0742 261.649 14.3291 261.649C13.4157 261.649 13.608 262.706 14.8819 264.896C15.4828 265.954 16.5403 267.783 17.216 268.961C19.1629 272.352 19.8866 272.256 22.0018 268.264C22.7709 266.822 23.8765 264.872 24.4801 263.935C25.2492 262.709 25.5376 262.06 25.4896 261.528C25.3934 260.663 24.7445 260.471 23.9032 261.048H23.9006Z" fill="black"/>
<path fill-rule="evenodd" clip-rule="evenodd" d="M43.2867 255.06C43.2146 255.132 42.4695 255.18 41.6523 255.204C40.7149 255.228 40.1381 255.324 40.0659 255.517C39.9938 255.685 40.114 258.067 40.3303 260.831C40.5226 263.598 40.763 268.023 40.8351 270.667C41.0033 275.958 41.0995 276.366 42.4455 276.919C43.5751 277.352 47.6879 277.496 54.8318 277.328L61.1798 277.159L61.6606 276.559C62.1413 275.982 62.1413 275.741 61.9971 268.381C61.7808 257.392 61.6846 256.163 60.9876 255.466L60.4348 254.913H51.9208C47.2553 254.913 43.3588 254.961 43.2867 255.057V255.06ZM59.5454 260.567C59.6175 262.418 59.7618 266.458 59.8339 269.538L59.9781 275.116L52.2092 274.972C47.9282 274.9 44.176 274.804 43.8876 274.732C43.3588 274.636 43.3348 274.516 43.3348 272.521C43.3348 268.216 42.7579 260.831 42.2291 257.875L42.0849 257.082L50.7431 257.154L59.4012 257.202L59.5454 260.57V260.567Z" fill="black"/>
<path fill-rule="evenodd" clip-rule="evenodd" d="M52.6419 262.829L51.1997 264.223L49.9018 263.189C48.5798 262.108 47.6905 261.723 47.0629 261.987C46.438 262.204 46.6543 262.684 48.2647 264.514L49.803 266.292L49.13 267.278C47.4475 269.732 46.892 271.751 47.9042 271.751C48.4089 271.751 50.3825 269.949 51.0796 268.864L51.4641 268.263L52.4015 269.129C54.4445 271.052 55.3606 271.292 55.3606 269.922C55.3606 269.033 54.8558 268.095 53.606 266.771L52.9089 266.025L53.606 264.968C56.0362 261.432 55.4327 260.11 52.6445 262.829H52.6419Z" fill="black"/>
<path fill-rule="evenodd" clip-rule="evenodd" d="M317.41 337.201C315.391 338.787 316.064 341.506 318.491 341.506C320.558 341.506 321.57 339.487 320.246 337.922C319.909 337.537 319.669 337.105 319.717 337.009C319.765 336.912 319.405 336.792 318.924 336.744C318.347 336.696 317.866 336.84 317.41 337.201ZM318.948 338.715C318.948 339.388 318.539 339.749 318.179 339.388C318.01 339.22 318.035 338.98 318.203 338.643C318.587 337.97 318.948 337.994 318.948 338.715Z" fill="black"/>
<path fill-rule="evenodd" clip-rule="evenodd" d="M318.948 346.123C317.818 346.892 316.809 348.601 316.638 350.067C316.467 351.534 317.215 353.147 318.441 353.94C319.522 354.661 321.472 354.685 322.794 354.012C324.885 352.954 325.777 350.091 324.741 347.904C324.116 346.654 323.515 346.198 322.19 346.005C321.661 345.933 320.916 345.789 320.508 345.717C319.979 345.597 319.57 345.717 318.945 346.126L318.948 346.123ZM321.571 348.022C322.484 348.334 322.796 348.863 322.796 350.041C322.796 351.939 320.585 353.024 319.309 351.723C318.563 351.002 318.539 349.945 319.236 348.692C319.789 347.683 320.222 347.562 321.571 348.019V348.022Z" fill="black"/>
<path fill-rule="evenodd" clip-rule="evenodd" d="M332.464 351.365C330.734 352.423 330.178 354.757 331.358 356.151C332.055 356.992 332.969 357.113 334.101 356.536C334.966 356.079 335.303 355.502 335.303 354.445C335.303 353.555 334.51 352.086 334.053 352.086C333.885 352.062 333.981 351.87 334.294 351.63C334.582 351.365 334.822 351.101 334.822 351.029C334.822 350.692 333.188 350.933 332.464 351.365ZM333.402 354.084C333.257 354.445 333.041 354.733 332.897 354.733C332.512 354.733 332.632 353.459 333.089 352.81L333.498 352.209L333.57 352.834C333.618 353.171 333.522 353.724 333.402 354.084Z" fill="black"/>
<path fill-rule="evenodd" clip-rule="evenodd" d="M318.059 362.911C316.52 363.848 316.04 365.245 316.737 366.807C317.506 368.586 319.311 369.141 321.234 368.201C322.364 367.648 323.037 366.663 323.037 365.555C323.037 364.93 322.796 364.545 321.811 363.608C320.393 362.262 319.405 362.07 318.059 362.911ZM320.705 364.761C321.138 365.507 321.138 365.531 320.657 366.011C319.287 367.381 317.674 365.819 318.999 364.425C319.672 363.704 320.128 363.8 320.705 364.761Z" fill="black"/>
<path fill-rule="evenodd" clip-rule="evenodd" d="M417.312 294.815C415.534 295.368 412.094 297.726 411.108 299.12L410.628 299.745L409.522 298.592C407.888 296.933 406.106 296.161 403.847 296.161C402.309 296.161 401.852 296.257 400.768 296.858C399.566 297.531 397.785 299.216 396.703 300.731L396.174 301.452L394.516 299.649C393.603 298.64 392.305 297.534 391.629 297.171C388.213 295.32 384.677 296.498 381.336 300.586L379.966 302.269L379.245 301.139C378.212 299.529 375.878 297.363 374.339 296.618C373.282 296.089 372.657 295.945 371.452 295.969C368.493 295.993 366.186 297.651 362.434 302.509C361.472 303.759 360.559 304.819 360.415 304.867C360.295 304.916 359.934 304.531 359.646 304.002C358.901 302.656 357.191 300.995 355.966 300.346C354.499 299.577 352.189 299.601 350.699 300.37C349.209 301.139 346.875 303.449 345.384 305.637C344.687 306.646 344.039 307.511 343.918 307.583C343.822 307.656 343.702 308.088 343.678 308.545C343.606 309.338 343.654 309.386 344.327 309.386C344.928 309.386 345.288 309.05 346.877 307.1C350.461 302.627 352.456 301.329 354.454 302.17C355.656 302.651 356.956 303.949 358.086 305.706C359.023 307.196 359.937 307.725 360.877 307.365C361.574 307.076 362.487 306.067 364.773 303.059C368.117 298.658 370.593 297.264 373.143 298.394C374.465 298.971 376.871 301.329 377.784 302.915C378.746 304.622 379.082 304.934 379.852 304.934C380.621 304.934 380.741 304.814 382.763 302.167C384.253 300.197 385.986 298.824 387.38 298.463C389.543 297.91 391.325 298.992 394.017 302.432C395.266 303.994 396.132 304.499 396.855 304.042C397.072 303.898 397.625 303.225 398.105 302.528C401.617 297.478 404.501 296.949 408.326 300.605C410.393 302.6 410.708 302.576 413.159 300.173C416.383 296.997 418.666 296.204 421.673 297.165C423.019 297.598 424.368 298.776 426.7 301.567C427.973 303.057 428.622 303.105 428.622 301.759C428.622 300.269 426.796 297.574 424.918 296.3C422.875 294.882 419.363 294.209 417.318 294.81L417.312 294.815Z" fill="black"/>
<path fill-rule="evenodd" clip-rule="evenodd" d="M246.953 309.883C246.689 310.171 246.593 311.493 246.545 315.414L246.473 320.536L245.103 319.502C242.456 317.459 241.158 317.144 241.014 318.469C240.942 319.094 241.23 319.454 243.396 321.5L245.874 323.834L243.927 326.697C241.593 330.161 240.896 331.483 241.089 332.108C241.473 333.285 242.963 332.18 245.322 328.956L246.379 327.49L246.499 330.81C246.643 334.442 247.1 335.98 248.11 336.124C248.903 336.244 249.143 335.043 249.143 331.05V327.442L250.345 328.572C251.643 329.774 252.388 330.158 253.496 330.158C254.049 330.158 254.193 330.062 254.193 329.629C254.193 329.028 253.472 328.043 251.114 325.42L249.335 323.449L251.91 320.178C253.304 318.399 254.629 316.642 254.821 316.282C255.254 315.392 255.254 314.551 254.773 314.359C254.028 314.07 252.802 314.984 251.045 317.174L249.266 319.361L249.146 314.936C249.05 310.991 248.978 310.438 248.569 309.982C248.016 309.381 247.391 309.333 246.959 309.885L246.953 309.883Z" fill="black"/>
<path fill-rule="evenodd" clip-rule="evenodd" d="M274.634 338.309C274.346 338.862 273.913 342.614 273.913 344.633C273.913 345.402 273.865 346.027 273.817 346.027C273.745 346.027 273.048 345.619 272.207 345.138C271.077 344.465 270.404 344.224 269.368 344.176C267.806 344.08 267.01 344.417 267.758 344.897C270.188 346.436 273.913 349.515 273.913 349.972C273.913 350.116 273.096 351.318 272.087 352.642C270.02 355.385 269.344 356.563 269.344 357.452C269.344 358.582 270.257 358.197 272.111 356.274L273.841 354.472L273.986 357.647C274.034 359.402 274.226 361.207 274.394 361.664C274.755 362.649 275.308 363.346 275.74 363.346C276.485 363.346 276.653 362.264 276.75 357.359L276.846 352.429L279.564 355.267C281.175 356.974 282.403 358.082 282.596 358.01C283.821 357.602 282.259 354.018 279.709 351.374C278.771 350.436 278.002 349.571 278.002 349.499C278.002 349.427 278.795 348.369 279.757 347.165C281.968 344.374 282.764 343.196 283.052 342.211C283.317 341.249 283.148 340.745 282.548 340.745C281.754 340.745 281.009 341.394 278.915 343.92L276.921 346.35L276.752 345.413C276.656 344.908 276.584 343.274 276.584 341.781C276.56 338.63 276.344 337.86 275.502 337.86C275.142 337.86 274.781 338.053 274.637 338.317L274.634 338.309Z" fill="black"/>
<path fill-rule="evenodd" clip-rule="evenodd" d="M236.757 361.014C236.469 361.471 236.324 362.721 236.132 366.017C235.988 368.447 235.844 370.49 235.796 370.538C235.748 370.562 234.882 370.057 233.849 369.384C231.638 367.942 229.976 367.317 228.799 367.533C228.342 367.63 227.981 367.798 227.981 367.894C227.981 368.014 229.135 368.952 230.58 370.033C231.998 371.091 233.587 372.319 234.116 372.776L235.053 373.617L233.539 375.276C231.544 377.487 230.724 378.86 231.109 379.34C231.613 379.941 231.974 379.773 233.876 378.114L235.678 376.552L235.702 380.112C235.726 384.153 235.846 384.85 236.543 384.946C237.409 385.066 238.034 382.903 238.25 379.151C238.322 377.733 238.49 376.576 238.635 376.576C238.755 376.576 239.74 377.273 240.798 378.138C244.502 381.194 246.641 381.939 246.16 380.085C245.944 379.22 244.045 377.222 241.399 375.107C240.101 374.05 239.04 373.136 239.04 373.064C239.04 372.992 240.194 371.646 241.639 370.057C245.271 365.968 246.545 363.829 245.319 363.829C244.55 363.829 242.12 365.656 240.533 367.413C239.692 368.351 238.923 369.12 238.827 369.12C238.707 369.12 238.659 367.461 238.731 365.44C238.803 362.697 238.755 361.639 238.514 361.183C238.058 360.366 237.24 360.269 236.76 361.014H236.757Z" fill="black"/>
<path fill-rule="evenodd" clip-rule="evenodd" d="M161.947 288.152C161.323 288.777 161.683 290.003 163.486 293.659C165.94 298.637 167.406 300.707 168.175 300.223C168.872 299.815 167.863 296.158 165.988 292.238C164.185 288.486 163.726 287.861 162.885 287.861C162.524 287.861 162.116 287.981 161.947 288.149V288.152Z" fill="black"/>
<path fill-rule="evenodd" clip-rule="evenodd" d="M172.724 289.909C172.195 290.558 172.724 295.944 173.325 296.089C173.733 296.185 174.166 294.983 174.454 292.985C174.671 291.423 174.671 290.99 174.382 290.387C173.998 289.57 173.204 289.329 172.724 289.906V289.909Z" fill="black"/>
<path fill-rule="evenodd" clip-rule="evenodd" d="M183.353 292.096C181.815 293.683 180.25 296.786 180.009 298.637C179.889 299.79 179.913 299.886 180.37 299.886C181.019 299.886 182.245 298.42 184.314 295.149C186.309 292.021 186.477 290.748 184.915 290.748C184.771 290.748 184.074 291.348 183.353 292.094V292.096Z" fill="black"/>
<path fill-rule="evenodd" clip-rule="evenodd" d="M154.133 294.526C153.797 294.839 153.989 295.993 154.446 296.593C154.974 297.242 158.246 299.408 158.727 299.408C159.688 299.408 158.078 296.882 156.056 295.223C155.047 294.382 154.47 294.19 154.133 294.526Z" fill="black"/>
<path fill-rule="evenodd" clip-rule="evenodd" d="M189.367 300.755C187.66 301.452 185.398 304.218 186.504 304.218C187.153 304.218 190.737 302.296 191.001 301.812C191.554 300.755 190.665 300.202 189.367 300.755Z" fill="black"/>
<path fill-rule="evenodd" clip-rule="evenodd" d="M148.819 303.521C147.569 303.834 146.944 304.387 147.04 305.156C147.16 306.261 147.905 306.405 151.73 306.021C156.66 305.516 158.054 305.156 158.054 304.338C158.054 304.17 157.693 303.882 157.285 303.738C156.275 303.353 150.069 303.209 148.819 303.521Z" fill="black"/>
<path fill-rule="evenodd" clip-rule="evenodd" d="M152.424 312.876C150.453 313.285 148.431 314.246 148.431 314.775C148.431 315.544 151.006 315.111 154.034 313.862C157.017 312.588 156.174 312.083 152.424 312.876Z" fill="black"/>
<path fill-rule="evenodd" clip-rule="evenodd" d="M187.057 313.141C186.408 313.237 185.711 313.501 185.519 313.693C185.182 314.03 185.182 314.102 185.567 314.535C186.168 315.208 187.853 315.568 191.001 315.688C194.345 315.833 196.412 315.52 197.229 314.703L197.806 314.126L197.085 313.766C196.604 313.501 195.066 313.309 192.54 313.141C190.449 312.996 188.619 312.9 188.475 312.9C188.355 312.924 187.706 313.02 187.057 313.141Z" fill="black"/>
<path fill-rule="evenodd" clip-rule="evenodd" d="M157.186 318.167C156.032 318.624 151.559 321.992 149.561 323.89C148.84 324.588 148.672 324.924 148.72 325.501C148.816 326.486 149.754 326.582 151.198 325.789C152.568 325.02 157.763 320.835 158.895 319.585C160.385 317.927 159.592 317.251 157.189 318.167H157.186Z" fill="black"/>
<path fill-rule="evenodd" clip-rule="evenodd" d="M181.382 322.304C181.382 322.664 183.62 325.335 184.317 325.815C184.942 326.272 185.807 326.08 185.903 325.479C185.999 324.782 184.942 323.58 183.449 322.736C182.151 321.967 181.382 321.823 181.382 322.304Z" fill="black"/>
<path fill-rule="evenodd" clip-rule="evenodd" d="M173.06 322.857C172.892 323.289 172.94 323.866 173.661 329.349C174.19 333.341 174.286 333.726 174.863 334.039C175.872 334.567 176.329 333.39 176.329 330.382C176.329 327.375 175.824 324.852 174.935 323.575C174.214 322.542 173.301 322.205 173.06 322.854V322.857Z" fill="black"/>
<path fill-rule="evenodd" clip-rule="evenodd" d="M163.585 325.311C162.191 326.873 161.71 328.751 162.575 329.207C163.248 329.568 163.969 328.943 164.378 327.597C165.027 325.602 165.075 324.422 164.546 324.422C164.45 324.422 164.017 324.83 163.585 325.311Z" fill="black"/>
<path fill-rule="evenodd" clip-rule="evenodd" d="M79.8179 307.514C79.7458 307.634 79.4574 308.595 79.169 309.677L78.6402 311.648L77.2942 311.816C75.3233 312.032 74.4073 312.465 74.215 313.258C73.9746 314.22 74.5274 315.037 76.0657 315.953L77.4117 316.746L77.0512 318.308C76.7387 319.702 76.7387 319.919 77.0992 320.448C77.7001 321.361 78.6375 321.241 80.1304 320.063L81.3562 319.102L82.7984 319.823C85.3488 321.097 86.4064 319.895 85.1565 317.104L84.6758 315.998L85.7574 314.893C86.6227 314.051 86.863 313.619 86.863 313.018C86.863 311.84 86.166 311.359 84.3126 311.239L82.7743 311.143L82.3898 309.773C82.1734 309.028 81.7648 308.187 81.5004 307.874C81.0197 307.37 80.0343 307.153 79.8179 307.514Z" fill="black"/>
<path fill-rule="evenodd" clip-rule="evenodd" d="M48.0723 313.045C47.88 313.285 47.3272 314.727 46.8946 316.244L46.1014 318.987L44.2506 319.252C41.9646 319.564 41.0753 320.141 40.9791 321.367C40.907 322.304 41.6762 323.41 43.2171 324.446C43.6738 324.758 44.0584 325.191 44.0584 325.407C44.0584 325.624 43.7459 327.042 43.3373 328.535C42.2797 332.551 42.3759 333.32 43.9622 333.32C44.6352 333.32 44.9717 333.08 46.1495 331.71C46.9186 330.821 47.88 329.739 48.2646 329.304L48.9857 328.486L50.3076 329.592C51.894 330.89 52.4949 331.106 53.3147 330.578C54.1079 330.073 54.1079 329.039 53.3147 326.369C52.9782 325.239 52.7138 324.302 52.7138 324.254C52.7138 324.206 53.3147 323.532 54.0358 322.739C56.3218 320.261 55.5981 318.651 52.2091 318.651C51.0794 318.651 51.0554 318.627 50.815 317.737C49.8777 314.37 49.5411 313.384 49.1566 313.048C48.6037 312.543 48.5557 312.543 48.075 313.048L48.0723 313.045Z" fill="black"/>
<path fill-rule="evenodd" clip-rule="evenodd" d="M81.0679 326.849C80.5151 327.402 80.5391 326.801 80.8515 340.173C80.9957 345.824 81.2121 350.369 81.3563 350.802C81.5486 351.403 81.7409 351.595 82.1975 351.595C83.0147 351.595 83.183 351.018 83.3753 347.386C83.5675 343.754 83.0868 327.642 82.7744 327.039C82.4379 326.414 81.5967 326.318 81.0679 326.846V326.849Z" fill="black"/>
<path fill-rule="evenodd" clip-rule="evenodd" d="M57.3316 335.772C56.7307 336.373 57.1153 337.286 59.5936 340.942C62.745 345.632 64.7399 348.302 67.699 351.884C70.2254 354.915 71.355 355.828 72.3165 355.588C73.4702 355.299 72.9654 354.194 70.1533 350.754C67.4346 347.434 66.4491 346.064 63.2016 341.375C59.3292 335.796 58.2957 334.81 57.3343 335.772H57.3316Z" fill="black"/>
<path fill-rule="evenodd" clip-rule="evenodd" d="M30.035 342.408C29.6985 342.768 29.1698 345.896 29.1457 347.65C29.1457 347.795 28.3285 348.083 27.3431 348.323C25.1318 348.852 24.3359 349.405 24.3359 350.487C24.3359 351.424 24.8407 351.929 26.8143 353.037C27.5594 353.446 28.1843 353.83 28.1843 353.83C28.1843 353.854 28.0161 354.719 27.8238 355.753C27.4392 357.82 27.5353 358.688 28.1843 359.049C29.1217 359.553 29.6986 359.313 31.0953 357.799L32.4653 356.333L33.3306 356.861C34.5083 357.606 35.6407 357.486 36.0733 356.573C36.3617 355.996 36.3377 355.684 35.857 354.119L35.3282 352.34L36.1214 351.114C37.7798 348.516 37.251 346.905 34.7754 346.929C33.3092 346.953 33.5015 347.218 32.7324 344.018C32.5881 343.345 32.2757 342.624 32.0834 342.384C31.6027 341.855 30.5451 341.855 30.0404 342.408H30.035Z" fill="black"/>
<path fill-rule="evenodd" clip-rule="evenodd" d="M40.6639 353.857C40.4716 354.289 40.4957 354.578 40.7841 355.155C41.6494 356.813 44.0316 357.994 51.5093 360.397C54.228 361.262 58.2206 362.584 60.4078 363.308C66.6117 365.375 68.3449 365.666 68.3449 364.63C68.3449 363.5 66.1336 362.392 59.9031 360.373C47.6129 356.381 43.1156 354.77 41.7696 353.857L40.9043 353.28L40.6639 353.857Z" fill="black"/>
<path fill-rule="evenodd" clip-rule="evenodd" d="M140.858 370.669C139.32 371.414 138.524 372.279 137.707 374.085C136.817 375.983 136.649 379.399 137.25 382.358C137.779 384.981 139.56 390.175 141.579 395.009C142.468 397.124 143.718 400.203 144.37 401.84C144.995 403.475 145.764 405.064 146.052 405.376C146.725 406.097 147.639 406.121 148.482 405.4C149.54 404.511 159.739 390.274 161.614 387.074C164.188 382.673 164.284 378.849 161.854 377.311C161.205 376.902 160.773 376.83 159.376 376.926C157.357 377.046 155.768 377.743 153.316 379.621L151.658 380.895L151.369 379.212C150.937 376.686 149.783 374.162 148.362 372.624C146.824 370.941 145.62 370.314 143.625 370.193C142.327 370.121 141.846 370.193 140.858 370.674V370.669ZM145.043 373.003C147.401 374.205 149.011 377.933 149.54 383.464C149.708 385.194 150.117 386.231 150.694 386.231C151.198 386.231 151.799 385.413 151.655 384.909C151.487 384.26 151.847 383.875 154.206 382.142C156.516 380.435 158.054 379.615 159.304 379.375C160.001 379.231 160.265 379.303 160.698 379.736C161.828 380.865 160.818 383.728 157.715 388.346C155.164 392.146 147.735 402.463 147.566 402.463C147.278 402.463 141.146 387.216 140.23 384.209C139.269 381.106 139.028 377.329 139.629 375.479C140.014 374.349 141.144 372.976 141.939 372.688C142.733 372.399 144.177 372.544 145.043 373V373.003Z" fill="black"/>
<path fill-rule="evenodd" clip-rule="evenodd" d="M389.847 348.879C389.559 349.216 389.439 350.225 389.319 353.04C388.886 362.515 387.708 367.614 385.47 369.563C384.581 370.356 382.631 371.173 380.66 371.606C377.966 372.159 377.894 373.721 380.564 373.721C382.079 373.721 386.023 374.851 386.912 375.524C388.691 376.894 389.124 378.435 389.775 386.225C389.992 388.8 390.28 391.155 390.4 391.443C390.665 392.165 391.914 392.213 392.299 391.54C392.419 391.275 392.539 389.521 392.539 387.619C392.563 381.487 393.092 377.855 394.294 376.122C395.063 374.944 396.361 374.319 399.416 373.596C402.255 372.947 402.64 372.73 402.64 371.865C402.64 371.144 402.063 370.88 399.873 370.567C396.217 370.062 394.366 369.125 393.501 367.368C392.828 365.95 392.395 362.702 391.914 355.51C391.554 349.907 391.482 349.258 391.049 348.874C390.785 348.657 390.472 348.465 390.376 348.465C390.28 348.465 390.04 348.657 389.847 348.874V348.879Z" fill="black"/>
<path fill-rule="evenodd" clip-rule="evenodd" d="M376.212 353.497C375.755 353.785 375.995 354.915 376.812 356.216C378.182 358.403 381.935 362.179 382.728 362.179C383.737 362.179 379.456 355.324 377.461 353.761C376.764 353.208 376.692 353.208 376.212 353.497Z" fill="black"/>
<path fill-rule="evenodd" clip-rule="evenodd" d="M368.491 373.12C368.01 373.697 368.322 374.274 369.308 374.658C370.149 374.971 370.461 374.971 372.171 374.61C374.238 374.202 374.769 373.889 374.334 373.457C373.637 372.76 369.019 372.495 368.491 373.12Z" fill="black"/>
<path fill-rule="evenodd" clip-rule="evenodd" d="M381.094 384.834C378.856 387.144 376.067 390.653 375.707 391.641C375.515 392.17 375.515 392.362 375.755 392.53C376.26 392.843 376.5 392.771 377.678 392.026C378.832 391.304 380.348 389.451 381.766 387.072C384.533 382.406 384.269 381.541 381.094 384.834Z" fill="black"/>
<path fill-rule="evenodd" clip-rule="evenodd" d="M54.3723 406.599C54.1319 406.888 54.0358 407.897 54.0118 410.496C53.9877 414.464 53.6272 416.051 52.2091 418.241C50.094 421.56 45.6447 423.219 41.6521 422.185C39.5851 421.656 36.0732 419.974 34.4361 418.745C32.8978 417.568 32.0059 417.448 31.405 418.337C31.0444 418.914 31.0445 418.986 31.6213 420.115C33.0154 422.762 33.8593 428.389 33.472 432.478C33.0875 436.494 31.6934 439.91 29.143 443.059C27.3643 445.27 25.6792 446.667 23.6842 447.604C22.0498 448.349 21.8335 448.758 22.7709 449.383C25.081 450.897 31.1406 445.895 33.8833 440.22C35.6139 436.612 35.9504 434.905 35.9744 429.999C35.9744 427.353 35.8783 425.262 35.662 424.396C35.4937 423.627 35.3976 422.954 35.4456 422.882C35.4937 422.834 36.4071 423.171 37.4646 423.627C40.1112 424.781 41.9139 425.19 44.1759 425.19C47.4955 425.19 50.5239 423.964 52.81 421.678C55.096 419.392 56.5382 415.81 56.5622 412.827V411.65L58.3889 413.621C61.396 416.844 64.064 418.358 67.1913 418.623C70.4628 418.911 73.8037 417.709 76.3301 415.351C77.0993 414.654 77.7723 414.101 77.7963 414.149C77.8204 414.197 78.0367 414.991 78.277 415.928C78.8298 418.238 80.1518 420.786 81.5005 422.3C83.183 424.175 86.142 425.403 86.142 424.247C86.142 423.742 85.5892 422.973 83.8079 421.023C81.885 418.908 80.7527 416.334 80.1037 412.486C79.7192 410.298 79.5509 410.031 78.5655 410.031C77.8444 410.031 77.6281 410.199 76.8109 411.281C75.537 413.012 74.1643 414.216 72.5058 415.057C67.648 417.488 63.3429 415.947 58.9417 410.175C56.1269 406.495 55.8385 406.183 55.2616 406.183C54.9492 406.183 54.5406 406.351 54.3723 406.591V406.599Z" fill="black"/>
<path fill-rule="evenodd" clip-rule="evenodd" d="M175.587 407.513C175.274 408.114 175.274 413.164 175.611 417.084C176.332 425.79 178.425 429.903 182.151 429.903C184.002 429.903 186.216 428.461 187.634 426.295C187.85 425.959 188.114 425.766 188.186 425.838C188.475 426.103 187.85 433.992 187.369 436.347C186.576 440.292 184.891 443.083 182.68 444.116C181.646 444.597 179.6 444.717 178.639 444.357C177.509 443.924 176.233 442.554 175.536 441.013C175.055 439.955 174.719 439.523 174.406 439.523C173.853 439.523 173.661 439.979 173.661 441.253C173.661 442.527 174.214 443.635 175.512 444.813C177.074 446.255 178.254 446.736 180.394 446.736C183.329 446.736 185.564 445.414 187.417 442.551C189.655 439.087 190.208 435.383 190.497 421.723C190.809 406.981 190.833 407.847 190.232 407.51C189.8 407.294 189.631 407.342 189.223 407.726C188.79 408.183 188.718 408.688 188.526 413.834C188.405 416.913 188.213 419.966 188.069 420.641C187.66 422.468 186.29 425.115 185.11 426.268C181.935 429.372 179.507 427.663 178.375 421.459C177.942 419.125 177.509 413.858 177.509 410.854C177.509 409.7 177.389 408.471 177.245 408.087C176.836 406.981 176.019 406.717 175.587 407.51V407.513Z" fill="black"/>
<path fill-rule="evenodd" clip-rule="evenodd" d="M216.279 425.118C213.127 426.68 212.31 431.61 214.837 433.896C215.125 434.184 216.375 435.026 217.603 435.771C220.971 437.838 222.053 439.499 221.163 441.182C220.947 441.614 220.442 442.167 220.009 442.407C218.76 443.176 217.483 442.984 215.728 441.782C214.695 441.085 214.07 441.206 214.07 442.143C214.07 443.08 214.623 443.705 215.873 444.306C217.123 444.907 219.216 444.979 220.418 444.474C221.596 443.994 222.872 442.552 223.209 441.323C223.954 438.652 222.512 436.393 218.495 433.987C216.017 432.473 215.272 431.629 215.272 430.331C215.272 428.504 216.546 426.771 217.942 426.771C218.712 426.771 219.841 427.636 220.589 428.838C221.478 430.304 222.488 429.391 221.887 427.636C221.31 426.002 219.529 424.605 217.99 424.605C217.63 424.605 216.861 424.845 216.284 425.11L216.279 425.118Z" fill="black"/>
<path fill-rule="evenodd" clip-rule="evenodd" d="M202.282 426.487C199.563 427.809 197.713 431.465 197.713 435.53C197.713 436.732 197.616 437.14 197.232 437.477C196.583 438.054 196.631 438.51 197.328 438.799C197.737 438.943 197.953 439.256 198.073 439.905C198.674 443.2 201.537 445.604 204.349 445.171C206.368 444.883 208.318 442.789 207.957 441.347C207.717 440.409 207.212 440.578 205.89 441.972C204.808 443.149 204.616 443.245 203.628 443.245C202.931 443.245 202.33 443.077 201.873 442.741C201.056 442.164 200.119 440.359 199.975 439.109C199.854 438.195 199.878 438.195 201.393 437.306C204.76 435.359 206.972 432.496 207.26 429.778C207.428 428.263 207.068 427.227 206.178 426.53C205.433 425.929 203.46 425.905 202.282 426.482V426.487ZM204.953 427.978C206.13 428.627 205.145 431.586 203.078 433.532C201.9 434.662 200.167 435.915 199.782 435.915C199.47 435.915 199.854 433.124 200.359 431.73C200.984 430.119 202.138 428.747 203.342 428.194C204.52 427.665 204.376 427.689 204.953 427.978Z" fill="black"/>
<path fill-rule="evenodd" clip-rule="evenodd" d="M371.765 431.204C371.188 431.564 371.717 432.165 373.639 433.271L375.37 434.256L368.106 434.425C355.191 434.713 335.375 435.554 327.029 436.155C319.813 436.66 314.811 437.453 314.595 438.102C314.402 438.655 320.871 438.823 328.231 438.414C335.303 438.03 363.512 437.02 371.161 436.876L378.377 436.732L376.334 437.814C373.495 439.304 372.39 440.628 373.255 441.494C373.736 441.974 374.361 441.83 376.022 440.821C377.921 439.691 379.389 439.114 382.781 438.198C384.151 437.814 385.355 437.405 385.476 437.309C385.86 436.876 385.956 436.107 385.668 435.722C385.235 435.17 375.063 431.465 372.969 431.105C372.512 431.009 371.96 431.057 371.767 431.201L371.765 431.204Z" fill="black"/>
<path fill-rule="evenodd" clip-rule="evenodd" d="M289.213 410.541C287.867 410.998 285.942 413.091 285.509 414.582C284.764 417.132 285.245 419.487 286.615 419.968C287.696 420.353 288.033 419.848 287.84 418.165C287.576 415.639 289.138 413.139 290.944 413.139C292.749 413.139 294.888 415.279 295.489 417.565C295.946 419.223 295.633 421.749 294.792 423.6C293.975 425.331 293.422 426.079 290.703 429.251C288.033 432.354 287.288 434.325 287.264 438.366C287.24 440.724 287.528 441.758 288.225 441.758C288.922 441.758 289.475 440.292 289.811 437.308C290.196 433.941 290.508 433.316 293.371 430.165C295.97 427.254 297.003 425.715 297.797 423.528C299.311 419.415 298.47 415.134 295.657 412.418C293.879 410.664 291.184 409.892 289.213 410.544V410.541Z" fill="black"/>
<path fill-rule="evenodd" clip-rule="evenodd" d="M266.703 414.486C266.318 415.038 266.318 415.279 266.607 416.94C266.775 417.949 266.991 422.134 267.087 426.247C267.4 438.441 267.977 442.049 269.566 441.446C270.383 441.133 270.575 439.547 270.263 435.17C270.095 432.908 269.974 428.461 269.974 425.286C269.974 419.25 269.59 415.498 268.869 414.416C268.364 413.623 267.234 413.671 266.705 414.488L266.703 414.486Z" fill="black"/>
<path fill-rule="evenodd" clip-rule="evenodd" d="M288.396 448.274C287.603 448.899 287.507 450.389 288.252 451.137C288.949 451.834 290.078 451.762 290.586 450.993C290.97 450.392 290.97 450.32 290.586 449.647C290.37 449.262 290.249 448.83 290.321 448.709C290.514 448.373 289.961 447.772 289.456 447.772C289.24 447.772 288.759 447.988 288.399 448.277L288.396 448.274Z" fill="black"/>
<path fill-rule="evenodd" clip-rule="evenodd" d="M269.013 449.719C268.556 449.959 268.1 450.176 268.003 450.224C267.931 450.272 267.787 450.584 267.691 450.945C267.33 452.387 269.542 453.183 270.794 452.026C271.708 451.209 271.804 450.536 271.083 449.815C270.386 449.118 270.169 449.118 269.016 449.719H269.013Z" fill="black"/>
</g>
<defs>
<clipPath id="clip0_51_808">
<rect width="751.562" height="481" fill="white" transform="translate(-355.719)"/>
</clipPath>
</defs>
</svg>
