<svg width="433" height="447" viewBox="0 0 433 447" fill="none" xmlns="http://www.w3.org/2000/svg">
<g clip-path="url(#clip0_183_35)">
<path d="M407.41 344.11C367.97 403.93 300.03 443.58 223.02 443.58C197.66 443.58 173.3 439.3 150.62 431.42C216.77 414.48 274 375.41 313.91 322.44C329.69 319.19 352.02 320.29 374.93 326.68C386.45 329.9 396.94 334.21 406.11 338.99C407.98 339.97 408.57 342.36 407.42 344.11H407.41Z"/>
<path d="M405.25 342.85C395.54 357.54 384.08 371.03 371.16 382.99C358.26 394.94 343.92 405.31 328.54 413.84C312.93 422.5 296.29 429.2 279.05 433.79C261.81 438.38 242.74 440.97 224.24 441.07C202.15 441.19 180.11 437.99 158.98 431.51C156.4 430.72 153.84 429.88 151.28 429V433.82C177.05 427.2 201.93 417.13 225.04 403.95C247.68 391.03 268.63 375.12 287.17 356.8C297.6 346.49 307.24 335.4 316.07 323.69L314.58 324.84C326.1 322.5 338.16 322.8 349.78 324.17C363.56 325.8 377.19 329.3 390.1 334.39C393.39 335.69 396.64 337.11 399.83 338.63C401.45 339.4 403.08 340.18 404.66 341.04C405.47 341.48 405.75 342.01 405.26 342.84C403.62 345.62 407.94 348.13 409.58 345.36C410.84 343.23 410.81 340.57 409.33 338.55C407.85 336.53 404.97 335.56 402.75 334.5C397.78 332.11 392.68 329.97 387.5 328.08C376.51 324.07 365.08 321.25 353.49 319.65C343.16 318.22 332.65 317.63 322.25 318.68C319.93 318.91 317.62 319.22 315.32 319.62C314.08 319.84 312.82 319.92 311.94 320.91C311.13 321.83 310.44 322.88 309.7 323.85C306.75 327.66 303.7 331.4 300.57 335.06C288.14 349.59 274.3 362.92 259.32 374.8C244.34 386.68 228.15 397.06 211.15 405.8C193.91 414.66 175.8 421.79 157.14 427.07C154.75 427.75 152.36 428.39 149.96 429.01C147.56 429.63 147.73 433.06 149.96 433.83C171.27 441.21 193.68 445.29 216.22 445.98C235.54 446.57 254.96 444.64 273.79 440.26C291.63 436.11 308.94 429.69 325.22 421.3C341.5 412.91 356.33 402.72 369.95 390.81C383.47 378.99 395.54 365.52 405.87 350.83C407.13 349.03 408.37 347.21 409.58 345.38C411.36 342.69 407.03 340.18 405.26 342.86L405.25 342.85Z" fill="#252223"/>
<path d="M428.45 161.62C427.09 156.31 425.25 151.07 422.47 146.34C419.44 141.19 408.93 134.52 402.78 130.91C399.79 129.16 397.47 126.49 396.16 123.29C394.34 118.82 391.77 112.54 390.48 109.34C388.21 103.69 385.7 98.13 382.75 92.81C376.87 82.17 369.85 72.17 361.88 63C353.92 53.84 345 45.49 335.34 38.15C325.66 30.8 315.23 24.46 304.23 19.3C293.18 14.11 281.57 10.11 269.64 7.46C268.51 7.21 267.36 6.97 266.22 6.74C252.25 3.96 237.81 2.5 223.02 2.5C192.27 2.5 165.09 7.08 139.09 17.96C162.06 30.73 169.82 58.51 171.27 60.37C164.89 52.27 148.76 36.48 126.31 23.87C113.5 16.67 98.6201 10.51 82.3101 7.4C70.8401 5.21 58.1601 10.8 53.2601 21.91C51.9601 24.85 51.4501 28.19 52.1401 31.33C52.7401 34.05 54.2201 36.52 56.0301 38.66C59.0601 42.21 62.8601 45.04 66.5501 47.85C70.4501 50.82 74.4501 53.63 78.3401 56.6C95.4001 69.59 111.9 85.54 125.65 101.93C111.3 85.09 81.1401 74.54 62.9301 71.37C42.3201 93.11 26.2901 114.8 15.8601 143.52C14.4901 147.3 13.4101 151.18 12.6001 155.11C11.7801 159.11 11.2401 163.16 10.9501 167.23C10.6601 171.3 10.6001 175.31 10.7501 179.35C10.9001 183.39 11.2401 187.57 11.7601 191.65C12.1801 194.99 12.7101 198.32 13.3301 201.64C16.6301 219.28 22.3901 236.45 30.4001 252.5C38.2601 268.25 48.2601 282.92 60.0401 295.99C62.1501 298.33 64.3201 300.63 66.5401 302.87C67.1301 303.47 72.8001 309.48 73.1701 309.25C114.98 282.99 164.46 267.79 217.48 267.79C233.67 267.79 249.45 269.71 265.41 272.15C289.32 275.81 312.16 285.7 336.25 288.39C340.45 288.87 344.68 289.13 348.97 289.09C357.08 289.02 365.19 288.31 373.19 286.96C386.34 284.75 400.11 279.93 405.09 266.29C406.54 262.32 407.06 257.93 405.99 253.83C405.16 250.62 403.29 247.63 400.61 245.64C397.48 243.33 393.44 242.97 389.67 242.93C385.76 242.89 381.85 242.99 377.93 242.93C369.73 242.81 361.51 242.42 353.37 241.31C351.91 241.11 350.45 240.89 348.99 240.64C341.83 239.43 334.72 237.28 328.67 233.28C316.63 225.31 310.31 211.36 308 197.47C307.62 195.17 309.9 193.33 312.07 194.19C321.71 197.99 344 206 360.81 206C386.15 206 420.2 197.29 428.18 186.26C432.15 180.77 430.13 168.17 428.46 161.61L428.45 161.62ZM319.89 163.84C294.97 166.31 274.21 145.54 276.67 120.62C278.49 102.18 293.41 87.27 311.85 85.44C336.77 82.97 357.53 103.74 355.07 128.66C353.25 147.1 338.33 162.01 319.89 163.84Z" fill="url(#paint0_linear_183_35)"/>
<path d="M319.89 161.34C312.28 162.06 304.64 160.64 297.95 156.9C291.61 153.36 286.43 148.01 283.08 141.57C275.88 127.75 278.46 110.4 289.21 99.17C299.96 87.94 317.09 84.49 331.21 91.05C345.33 97.61 353.5 111.6 352.72 126.72C351.91 142.42 340.56 156.22 325.42 160.29C323.61 160.78 321.76 161.14 319.9 161.33C318.56 161.47 317.4 162.38 317.4 163.83C317.4 165.07 318.55 166.47 319.9 166.33C328.78 165.41 337.08 161.8 343.76 155.86C350.44 149.92 354.9 142.27 356.77 133.81C360.5 116.92 353.32 99.21 338.93 89.64C324.42 79.98 304.58 80.59 290.72 91.17C283.69 96.54 278.39 103.94 275.78 112.42C273.17 120.9 273.38 129.8 276.15 137.95C281.63 154.09 296.63 165.5 313.65 166.45C315.73 166.57 317.82 166.51 319.9 166.31C321.24 166.18 322.4 165.25 322.4 163.81C322.4 162.56 321.25 161.18 319.9 161.31L319.89 161.34Z" fill="#252223"/>
<path d="M430.86 160.95C429.4 155.33 427.53 149.21 424.18 144.38C421.52 140.54 417.56 137.64 413.79 134.97C411.79 133.56 409.75 132.23 407.67 130.94C405.76 129.75 403.64 128.75 401.96 127.25C398.04 123.77 396.61 117.82 394.7 113.11C390.17 101.97 385.24 91.25 378.67 81.14C371.8 70.57 363.79 60.71 354.85 51.82C337.22 34.29 315.96 20.51 292.69 11.73C269.42 2.95003 242.45 -0.479967 216.81 0.0600327C191.17 0.600033 163.29 5.19003 138.42 15.54C136.56 16.31 135.77 18.95 137.82 20.11C147.99 25.84 155.64 34.84 161.31 44.91C163.28 48.42 165.09 52.2 166.62 55.83C167.38 57.65 167.93 60.02 169.11 61.62L173.04 58.59C164.77 48.15 154.12 39.36 143.32 31.69C128.57 21.22 112.16 12.83 94.7501 7.80003C86.8901 5.53003 78.7301 3.35003 70.5701 5.19003C63.5101 6.78003 57.1101 11.01 53.0801 17.03C50.7801 20.46 49.2401 24.57 49.3401 28.74C49.4501 33.17 51.4601 37.07 54.2601 40.4C57.2501 43.95 61.0401 46.75 64.7101 49.54C68.8001 52.65 73.0001 55.62 77.0801 58.73C94.3001 71.85 109.96 87.12 123.89 103.67L127.43 100.13C118.09 89.3 104.75 82.31 91.6601 77.08C85.3101 74.54 78.7701 72.42 72.1301 70.76C69.3401 70.06 66.4601 69.27 63.6001 68.94C61.3601 68.68 60.1401 70.66 58.7601 72.15C57.3801 73.64 55.9201 75.22 54.5301 76.78C43.5801 88.98 33.5501 102.06 25.5401 116.38C16.8901 131.85 9.9701 148.59 8.5301 166.39C7.0001 185.33 10.4601 204.73 15.9401 222.81C21.4201 240.89 29.0001 257.1 38.9301 272.46C47.5001 285.72 57.7101 297.79 68.9501 308.87C70.8001 310.7 72.3801 312.53 75.0501 311.01C78.6801 308.94 82.1901 306.67 85.8301 304.62C93.1401 300.51 100.65 296.74 108.31 293.32C140.06 279.17 174.59 271.41 209.32 270.38C228.77 269.8 248.28 271.67 267.44 274.97C286.6 278.27 303.57 284.7 321.9 288.53C340.23 292.36 359.15 292.49 377.56 288.65C391.39 285.77 405.47 278.38 408.55 263.33C410.14 255.57 407.8 246.18 400.17 242.4C396.43 240.55 392.23 240.4 388.13 240.39C383.37 240.38 378.62 240.45 373.86 240.32C356.45 239.85 335.87 238.97 323.22 225.31C318.05 219.72 314.59 212.7 312.43 205.45C311.89 203.62 311.42 201.77 311.03 199.9C310.81 198.84 309.73 196.36 311.44 196.59C312.54 196.74 313.81 197.51 314.86 197.91C316.23 198.43 317.61 198.93 318.99 199.42C333.1 204.44 348.12 208.78 363.23 208.46C378.34 208.14 393.5 205.59 407.71 200.82C413.53 198.86 419.47 196.51 424.54 192.99C426.44 191.67 428.24 190.2 429.69 188.4C431.66 185.96 432.46 183.03 432.81 179.96C433.53 173.66 432.43 167.05 430.9 160.94C430.12 157.82 425.29 159.14 426.08 162.27C427.48 167.86 428.54 173.92 427.84 179.7C427.28 184.37 424.59 187.08 420.77 189.51C410.66 195.93 398.15 198.91 386.5 201.04C373.07 203.49 359.37 204.5 345.9 201.86C339.21 200.55 332.62 198.71 326.14 196.59C323.39 195.69 320.66 194.75 317.94 193.75C315.75 192.95 313.12 191.41 310.76 191.49C302.33 191.78 306.54 203.47 307.99 208.01C310.05 214.47 313.06 220.63 317.25 225.97C321.44 231.31 327.28 236.01 333.81 238.85C341.19 242.06 349.12 243.37 357.07 244.25C365.82 245.21 374.64 245.48 383.44 245.42C390.63 245.37 399.16 244.46 402.78 252.15C405.87 258.69 403.26 267.01 398.85 272.33C394.96 277.01 389.47 279.96 383.76 281.85C377 284.09 369.83 285.14 362.77 285.83C354.23 286.67 345.61 286.88 337.07 285.96C320.31 284.16 304.22 278.79 287.99 274.49C271.76 270.19 254.52 267.61 237.5 266.16C220.48 264.71 204.46 265.07 188.04 266.85C157.56 270.14 127.77 278.52 100.06 291.65C93.2201 294.89 86.5201 298.42 79.9801 302.22C78.4701 303.09 76.9801 303.98 75.4901 304.89C74.7801 305.32 73.6801 305.75 73.1201 306.35L72.8201 306.53C72.0301 306.93 72.4901 307.08 74.2001 306.98C74.2201 306.94 74.3901 307.33 74.0801 306.86C73.6001 306.14 72.6501 305.52 72.0401 304.9C71.2101 304.07 70.3901 303.22 69.5701 302.37C59.1501 291.55 49.6301 280.2 41.6601 267.43C32.9201 253.43 25.9901 238.35 21.1101 222.59C16.1101 206.45 12.8401 189.41 13.2301 172.46C13.4301 163.76 14.7101 155.11 17.3901 146.82C19.7601 139.49 22.9001 132.36 26.3701 125.49C32.8901 112.57 41.0601 100.55 50.2601 89.39C54.8801 83.79 59.7401 78.39 64.7301 73.11L62.3001 73.75C73.3501 75.7 84.2601 79.11 94.5101 83.65C105.34 88.44 116.1 94.6 123.92 103.67C126.03 106.12 129.51 102.58 127.46 100.13C115.75 86.21 102.82 73.3 88.8201 61.69C81.7501 55.83 74.2701 50.55 66.9801 44.99C60.4301 40 52.0801 33.6 55.0501 24.28C57.1101 17.83 62.9101 12.87 69.1901 10.76C76.6501 8.25003 83.9201 10 91.2901 12C107.73 16.45 123.2 24.03 137.29 33.54C149.08 41.5 160.66 50.91 169.54 62.11C171.28 64.31 175.15 61.37 173.47 59.08C173.27 58.8 172.77 57.63 173.02 58.23C172.66 57.38 172.32 56.52 171.97 55.66C170.8 52.81 169.58 49.98 168.22 47.22C164.49 39.62 159.79 32.42 153.91 26.31C149.94 22.18 145.39 18.6 140.4 15.79L139.8 20.36C161.41 11.36 184.39 6.66003 207.73 5.39003C232.58 4.05003 257.96 5.88003 281.83 13.26C328.97 27.82 369.58 64.15 388.13 110C390.17 115.04 392.02 120.22 394.32 125.14C396.79 130.42 401.5 132.9 406.19 135.87C410.88 138.84 415.26 141.69 418.85 145.6C422.85 149.97 424.64 156.67 426.1 162.27C426.91 165.38 431.73 164.06 430.92 160.94L430.86 160.95Z" fill="#252223"/>
<path d="M171.27 60.36C164.89 52.2599 148.76 36.47 126.31 23.86C130.55 21.71 134.8 19.75 139.09 17.95C162.06 30.72 169.82 58.5 171.27 60.36Z" fill="url(#paint1_linear_183_35)"/>
<path d="M173.04 58.5899C169.48 54.0899 165.39 49.9899 161.17 46.0999C155 40.4199 148.4 35.1899 141.51 30.4199C137 27.2999 132.35 24.3899 127.57 21.6999V26.0199C131.57 23.9999 135.63 22.0999 139.75 20.3599L137.82 20.1099C145.88 24.6299 152.48 31.2999 157.62 38.9199C159.81 42.1699 161.77 45.5699 163.52 49.0799C164.25 50.5399 164.94 52.0099 165.61 53.4999C165.89 54.1199 166.15 54.7399 166.42 55.3599C166.71 56.0399 166.33 55.1299 166.6 55.7899C166.73 56.1099 166.86 56.4199 166.99 56.7399C167.63 58.2899 168.09 60.2799 169.1 61.6199C169.91 62.6999 171.26 63.2499 172.52 62.5199C173.58 61.8999 174.23 60.1799 173.42 59.0999C173.3 58.9399 173.21 58.7499 173.12 58.5599C173.05 58.4199 172.99 58.2699 172.92 58.1299C172.62 57.4899 173.15 58.6999 172.86 57.9899C172.41 56.8999 171.97 55.7999 171.52 54.7099C170.04 51.1599 168.46 47.6599 166.65 44.2599C161.72 35.0099 155.23 26.5099 146.87 20.0999C145.66 19.1699 144.41 18.2899 143.12 17.4599C142.41 17.0099 141.7 16.5699 140.97 16.1499C139.64 15.3899 138.77 15.3899 137.37 15.9799C133.19 17.7499 129.08 19.6599 125.03 21.6999C123.34 22.5499 123.46 25.1299 125.03 26.0199C139.28 34.0399 152.63 44.0099 163.95 55.8399C165.88 57.8599 167.75 59.9399 169.48 62.1299C170.32 63.1899 172.14 63.0099 173.02 62.1299C174.07 61.0799 173.86 59.6599 173.02 58.5899H173.04Z" fill="#252223"/>
<path d="M336.25 288.38C330.43 298.76 323.63 309.18 316.64 318.75C315.74 319.99 314.83 321.21 313.9 322.43C273.99 375.4 216.76 414.47 150.61 431.41C122.97 438.49 93.68 444.88 65.03 441.65C58.09 440.87 51.46 437.85 47.39 431.99C43.74 426.72 40.99 418.42 43.19 412.16C45 407.04 49.95 403.74 54.92 401.57C63.13 397.97 70.84 394.24 78.65 389.77C99.16 378.03 118.06 363.8 135 347.56C111.97 338.71 91.02 325.61 73.16 309.23C114.97 282.97 164.45 267.77 217.47 267.77C233.66 267.77 249.44 269.69 265.4 272.13C289.31 275.79 312.15 285.68 336.24 288.37L336.25 288.38Z" fill="url(#paint2_linear_183_35)"/>
<path d="M334.09 287.12C318.87 314.2 299.37 338.91 276.58 360C255.5 379.51 231.56 395.89 205.75 408.5C177.85 422.13 147.74 430.84 117.24 436.4C100.25 439.5 82.81 441.11 65.58 439.22C58.91 438.49 52.51 435.52 48.86 429.69C45.53 424.37 42.98 416.46 46.69 410.72C48.53 407.87 51.59 405.96 54.57 404.49C58.24 402.68 62.04 401.15 65.73 399.38C73.4 395.7 80.84 391.56 88.08 387.09C102.15 378.4 115.47 368.48 127.87 357.54C130.89 354.87 133.85 352.14 136.76 349.36C138.23 347.95 137.33 345.83 135.66 345.18C118.23 338.46 101.74 329.16 86.99 317.69C82.83 314.46 78.81 311.05 74.92 307.49L74.41 311.42C88.46 302.62 103.29 295.05 118.72 288.98C134.39 282.81 150.64 278.12 167.18 274.98C184.3 271.73 201.76 270.16 219.19 270.3C228.84 270.38 238.47 271.14 248.04 272.27C257.37 273.37 266.72 274.64 275.89 276.69C293.82 280.7 311.2 287.05 329.38 289.96C331.65 290.32 333.94 290.63 336.22 290.89C337.56 291.04 338.72 289.63 338.72 288.39C338.72 286.91 337.57 286.04 336.22 285.89C317.86 283.8 300.35 277.53 282.49 273.11C273.28 270.83 263.96 269.35 254.56 268.09C245.16 266.83 235.23 265.8 225.5 265.44C207.65 264.77 189.69 266.12 172.08 269.04C154.47 271.96 138.7 276.21 122.7 282.12C106.95 287.94 91.72 295.18 77.3 303.78C75.48 304.87 73.67 305.97 71.88 307.1C70.57 307.92 70.15 309.9 71.37 311.03C85.59 324.04 101.65 335.02 119.01 343.39C124.02 345.8 129.13 348 134.31 350L133.21 345.82C120.94 357.56 107.69 368.24 93.54 377.64C86.41 382.38 79.08 386.84 71.52 390.86C67.64 392.92 63.7 394.86 59.71 396.7C56.1 398.37 52.28 399.76 48.91 401.92C45.89 403.86 43.08 406.42 41.51 409.7C39.94 412.98 39.64 416.91 40.18 420.64C41.25 428 45.26 435.18 51.42 439.43C58.01 443.98 66.15 444.5 73.9 444.86C82.83 445.28 91.79 444.86 100.67 443.87C118.4 441.9 135.86 437.89 153.08 433.36C167.76 429.5 182.12 424.49 196.05 418.45C223.27 406.65 248.64 390.72 271.2 371.45C294.8 351.29 315.12 327.43 331.57 301.12C333.93 297.35 336.2 293.53 338.38 289.65C339.96 286.84 335.64 284.32 334.06 287.13L334.09 287.12Z" fill="#252223"/>
<path d="M135.01 347.57C118.07 363.81 99.17 378.03 78.66 389.78C32 349.34 2.47998 289.63 2.47998 223.04C2.47998 203.21 6.21998 183.87 11.12 165.59C11.14 222.39 34.36 273.65 73.17 309.24C91.03 325.62 111.98 338.72 135.01 347.57Z" />
<path d="M133.24 345.8C120.14 358.34 105.91 369.66 90.68 379.52C86.33 382.34 81.89 385.04 77.4 387.62L78.66 387.28C79.25 387.52 79.84 387.77 80.43 388.01C69.18 378.24 58.85 367.37 49.81 355.52C40.66 343.54 32.74 330.62 26.22 317.03C19.64 303.31 14.55 288.88 10.99 274.08C7.43002 259.28 5.34002 243.21 5.03002 227.53C4.66002 209.07 7.38002 190.87 11.8 172.99C12.36 170.74 12.94 168.5 13.54 166.26L8.63002 165.6C8.65002 181.13 10.38 196.68 13.88 211.82C17.38 226.96 22.29 240.56 28.85 253.99C35.41 267.42 43.3 279.62 52.57 291.03C62.28 302.97 73.45 313.62 85.7 322.94C98.92 333 113.39 341.29 128.7 347.72C130.57 348.51 132.45 349.26 134.35 349.99L132.6 348.24C132.87 349.56 134.44 350.33 135.68 349.99C137.06 349.61 137.69 348.24 137.43 346.91C137.17 345.58 135.9 345.25 134.87 344.85C133.84 344.45 132.85 344.05 131.84 343.64C130.03 342.9 128.24 342.13 126.45 341.33C122.7 339.65 119.01 337.85 115.37 335.93C108.14 332.12 101.15 327.85 94.45 323.16C81.93 314.39 70.46 304.1 60.4 292.59C50.89 281.71 42.7 269.71 35.94 256.94C29.11 244.03 23.82 230.34 20.1 216.22C16.24 201.56 14.12 186.49 13.69 171.35C13.64 169.43 13.61 167.51 13.61 165.59C13.61 162.79 9.44002 162.18 8.70002 164.93C5.60002 176.5 3.07002 188.21 1.52002 200.09C-0.0299839 211.97 -0.329984 222.96 0.250016 234.44C1.27002 254.54 4.98002 274.51 11.35 293.6C17.72 312.69 26.16 329.85 36.97 346.13C47.78 362.41 60.42 376.97 74.87 389.8C75.83 390.65 77 392.06 78.3 392.24C79.7 392.43 81.09 391.26 82.24 390.59C84.71 389.15 87.15 387.67 89.57 386.15C94.4 383.12 99.14 379.95 103.79 376.64C113.1 370 122.04 362.83 130.52 355.15C132.63 353.24 134.7 351.31 136.76 349.34C139.09 347.11 135.55 343.58 133.22 345.8H133.24Z" fill="#252223"/>
<path d="M315.87 142.35C325.651 142.35 333.58 134.421 333.58 124.64C333.58 114.859 325.651 106.93 315.87 106.93C306.089 106.93 298.16 114.859 298.16 124.64C298.16 134.421 306.089 142.35 315.87 142.35Z" fill="#F0F1F1"/>
<path d="M331.08 124.64C331.02 130.85 327.17 136.73 321.25 138.88C315.33 141.03 308.32 139.29 304.12 134.31C299.92 129.33 299.59 122.28 302.8 116.87C306.01 111.46 312.47 108.46 318.65 109.68C325.82 111.09 331.01 117.33 331.08 124.64C331.11 127.86 336.11 127.86 336.08 124.64C336 116.14 330.69 108.61 322.73 105.64C314.94 102.73 305.63 105.25 300.37 111.69C295.11 118.13 294.1 127.73 298.56 135.08C303 142.39 311.62 146.07 319.97 144.43C329.3 142.6 335.98 134.03 336.07 124.65C336.1 121.43 331.1 121.43 331.07 124.65L331.08 124.64Z" fill="#252223"/>
<path d="M315.87 85.25C294.11 85.25 276.47 102.89 276.47 124.65C276.47 146.41 294.11 164.05 315.87 164.05C337.63 164.05 355.27 146.41 355.27 124.65C355.27 102.89 337.63 85.25 315.87 85.25ZM315.87 142.35C306.09 142.35 298.16 134.42 298.16 124.64C298.16 114.86 306.09 106.93 315.87 106.93C325.65 106.93 333.58 114.86 333.58 124.64C333.58 134.42 325.65 142.35 315.87 142.35Z" fill="url(#paint3_linear_183_35)"/>
<path d="M124.74 100.76C110.39 83.9201 81.1399 74.5201 62.9199 71.3601C67.8099 66.1901 72.9599 61.2601 78.3299 56.5801C95.3899 69.5701 110.98 84.3701 124.74 100.76Z" fill="url(#paint4_linear_183_35)"/>
<path d="M126.51 98.99C120.39 91.86 112.33 86.49 104.01 82.25C95.6899 78.01 86.32 74.53 77.0499 71.98C72.6099 70.76 68.1199 69.74 63.5899 68.94L64.6899 73.12C69.59 67.95 74.7299 63.02 80.0999 58.34L77.0699 58.73C90.1999 68.74 102.48 79.9 113.7 92.01C116.87 95.44 119.96 98.94 122.97 102.52C123.84 103.55 125.61 103.42 126.51 102.52C127.53 101.5 127.38 100.02 126.51 98.98C115.7 86.12 103.77 74.21 90.8899 63.42C87.1999 60.33 83.4299 57.33 79.5999 54.41C78.6899 53.71 77.3399 54.13 76.5699 54.8C71.1999 59.48 66.0599 64.41 61.1599 69.58C59.9699 70.83 60.3199 73.42 62.2599 73.76C70.6199 75.22 78.8499 77.45 86.8399 80.3C95.6699 83.45 104.29 87.45 112.02 92.8C116.05 95.59 119.78 98.8 122.97 102.53C123.85 103.56 125.6 103.43 126.51 102.53C127.53 101.51 127.39 100.02 126.51 98.99Z" fill="#252223"/>
<path d="M65.1906 201.57C66.0434 199.513 68.9566 199.513 69.8094 201.57L74.9814 214.044C75.2306 214.645 75.7045 215.125 76.3024 215.383L88.6649 220.704C90.6804 221.571 90.6804 224.429 88.6649 225.296L76.3024 230.617C75.7045 230.875 75.2306 231.355 74.9814 231.956L69.8094 244.43C68.9566 246.487 66.0434 246.487 65.1906 244.43L60.0186 231.956C59.7694 231.355 59.2955 230.875 58.6976 230.617L46.3351 225.296C44.3196 224.429 44.3196 221.571 46.3351 220.704L58.6976 215.383C59.2955 215.125 59.7694 214.645 60.0186 214.044L65.1906 201.57Z" fill="url(#paint5_linear_183_35)"/>
<path d="M108.736 215.542C109.769 213.098 113.231 213.098 114.264 215.542L120.084 229.32C120.388 230.039 120.961 230.612 121.68 230.916L135.458 236.736C137.902 237.769 137.902 241.231 135.458 242.264L121.68 248.084C120.961 248.388 120.388 248.961 120.084 249.68L114.264 263.458C113.231 265.902 109.769 265.902 108.736 263.458L102.916 249.68C102.612 248.961 102.039 248.388 101.32 248.084L87.5418 242.264C85.0983 241.231 85.0983 237.769 87.5418 236.736L101.32 230.916C102.039 230.612 102.612 230.039 102.916 229.32L108.736 215.542Z" fill="url(#paint6_linear_183_35)"/>
<path d="M92.6647 181.239C93.3605 179.632 95.6395 179.632 96.3353 181.239L100.266 190.315C100.472 190.793 100.857 191.171 101.339 191.37L110.513 195.151C112.164 195.831 112.164 198.169 110.513 198.849L101.339 202.63C100.857 202.829 100.472 203.207 100.266 203.685L96.3353 212.761C95.6395 214.368 93.3605 214.368 92.6647 212.761L88.7344 203.685C88.5275 203.207 88.1425 202.829 87.6612 202.63L78.4866 198.849C76.8361 198.169 76.8361 195.831 78.4866 195.151L87.6612 191.37C88.1425 191.171 88.5275 190.793 88.7344 190.315L92.6647 181.239Z" fill="url(#paint7_linear_183_35)"/>
</g>
<defs>
<linearGradient id="paint0_linear_183_35" x1="10.6707" y1="155.878" x2="430.483" y2="155.878" gradientUnits="userSpaceOnUse">
<stop stop-color="#F4F1EF"/>
<stop offset="1" stop-color="white"/>
</linearGradient>
<linearGradient id="paint1_linear_183_35" x1="126.31" y1="39.155" x2="171.27" y2="39.155" gradientUnits="userSpaceOnUse">
<stop stop-color="#232526"/>
<stop offset="1" stop-color="#414345"/>
</linearGradient>
<linearGradient id="paint2_linear_183_35" x1="42.4048" y1="355.141" x2="336.25" y2="355.141" gradientUnits="userSpaceOnUse">
<stop stop-color="#232526"/>
<stop offset="1" stop-color="#414345"/>
</linearGradient>
<linearGradient id="paint3_linear_183_35" x1="276.47" y1="124.65" x2="355.27" y2="124.65" gradientUnits="userSpaceOnUse">
<stop stop-color="#232526"/>
<stop offset="1" stop-color="#414345"/>
</linearGradient>
<linearGradient id="paint4_linear_183_35" x1="62.9199" y1="78.6701" x2="124.74" y2="78.6701" gradientUnits="userSpaceOnUse">
<stop stop-color="#232526"/>
<stop offset="1" stop-color="#414345"/>
</linearGradient>
<linearGradient id="paint5_linear_183_35" x1="41" y1="223" x2="94" y2="223" gradientUnits="userSpaceOnUse">
<stop stop-color="#232526"/>
<stop offset="1" stop-color="#414345"/>
</linearGradient>
<linearGradient id="paint6_linear_183_35" x1="81" y1="239.5" x2="142" y2="239.5" gradientUnits="userSpaceOnUse">
<stop stop-color="#232526"/>
<stop offset="1" stop-color="#414345"/>
</linearGradient>
<linearGradient id="paint7_linear_183_35" x1="74" y1="197" x2="115" y2="197" gradientUnits="userSpaceOnUse">
<stop stop-color="#232526"/>
<stop offset="1" stop-color="#414345"/>
</linearGradient>
<clipPath id="clip0_183_35">
<rect width="433" height="446.08" fill="white"/>
</clipPath>
</defs>
</svg>
