<svg width="127" height="84" viewBox="0 0 127 84" fill="none" xmlns="http://www.w3.org/2000/svg">
<path d="M103 35.5753V68.8387C102.995 70.517 102.327 72.1251 101.14 73.3118C99.9532 74.4985 98.3451 75.1673 96.6668 75.1719H63.3947C62.5622 75.1725 61.7379 75.0089 60.9687 74.6907C60.1995 74.3724 59.5007 73.9056 58.9121 73.317C58.3234 72.7283 57.8566 72.0295 57.5384 71.2603C57.2201 70.4911 57.0565 69.6668 57.0571 68.8343V57.8621H34.9722C33.1119 57.8552 31.3298 57.1131 30.0144 55.7977C28.699 54.4823 27.9569 52.7002 27.95 50.8399V18.9941C27.9511 17.13 28.6907 15.3423 30.0067 14.0222C31.3227 12.702 33.1082 11.9569 34.9722 11.95H78.5671C80.4358 11.9557 82.2264 12.7007 83.5478 14.0221C84.8693 15.3435 85.6142 17.1341 85.62 19.0029V29.2334H96.6449C97.4788 29.2317 98.3049 29.3944 99.0759 29.7124C99.8468 30.0303 100.548 30.4972 101.138 31.0862C101.728 31.6753 102.196 32.375 102.516 33.1453C102.836 33.9156 103 34.7414 103 35.5753Z" fill="#131314"/>
<path d="M98.4443 31.6298V64.8932C98.4443 66.4064 97.8432 67.8577 96.7732 68.9277C95.7032 69.9977 94.252 70.5988 92.7388 70.5988H59.4534C58.7042 70.5988 57.9623 70.4512 57.27 70.1645C56.5778 69.8777 55.9488 69.4575 55.419 68.9277C54.8892 68.3979 54.4689 67.7689 54.1822 67.0767C53.8955 66.3844 53.7479 65.6425 53.7479 64.8932V53.3285H74.6566C75.5013 53.3291 76.3379 53.1632 77.1184 52.8403C77.899 52.5175 78.6084 52.044 79.2059 51.4468C79.8034 50.8497 80.2774 50.1407 80.6008 49.3603C80.9242 48.58 81.0907 47.7435 81.0907 46.8988V25.9023H92.7344C94.2504 25.907 95.7027 26.5125 96.773 27.5861C97.8433 28.6597 98.4443 30.1139 98.4443 31.6298Z" fill="#9B9C9E"/>
<path d="M45.4002 23.5718H85.6332V50.8312C85.6332 52.7006 84.8906 54.4934 83.5687 55.8153C82.2468 57.1371 80.454 57.8797 78.5846 57.8797H45.4002V23.5718Z" fill="#131314"/>
<path d="M74.6434 8.6145H31.0486C27.4951 8.6145 24.6144 11.4952 24.6144 15.0486V46.8944C24.6144 50.4478 27.4951 53.3285 31.0486 53.3285H74.6434C78.1968 53.3285 81.0775 50.4478 81.0775 46.8944V15.0486C81.0775 11.4952 78.1968 8.6145 74.6434 8.6145Z"/>
<path d="M29.2096 44.3838C29.1905 44.0308 29.2451 43.6776 29.3701 43.3468C29.495 43.016 29.6874 42.7149 29.9352 42.4626C30.1829 42.2103 30.4805 42.0124 30.809 41.8815C31.1374 41.7506 31.4896 41.6895 31.8429 41.7022C32.3358 41.6771 32.8238 41.81 33.2359 42.0816C33.648 42.3532 33.9626 42.7492 34.1339 43.212L32.9841 43.6509C32.9174 43.3876 32.7645 43.1542 32.5497 42.988C32.3349 42.8217 32.0707 42.7322 31.7991 42.7336C31.0749 42.7336 30.4824 43.2822 30.4824 44.4058C30.4824 45.5293 31.0837 46.0999 31.7991 46.0999C32.0941 46.1022 32.3807 46.0013 32.6092 45.8145C32.8376 45.6277 32.9935 45.3669 33.0499 45.0773L34.2261 45.4854C34.0481 45.9763 33.7189 46.398 33.2859 46.6898C32.8529 46.9817 32.3384 47.1285 31.8166 47.1093C30.2893 47.0874 29.2096 46.0253 29.2096 44.3838Z" fill="#131314"/>
<path d="M34.8493 44.3927C34.8268 44.044 34.8769 43.6943 34.9963 43.3659C35.1157 43.0375 35.302 42.7374 35.5432 42.4846C35.7845 42.2318 36.0756 42.0317 36.398 41.8971C36.7205 41.7624 37.0674 41.6961 37.4168 41.7023C38.9047 41.7023 39.9756 42.8039 39.9756 44.3927C39.9756 45.9815 38.8959 47.0875 37.4168 47.0875C37.0683 47.0892 36.7231 47.0196 36.4024 46.8831C36.0818 46.7467 35.7923 46.5461 35.5519 46.2938C35.3115 46.0415 35.1252 45.7427 35.0044 45.4158C34.8836 45.0889 34.8308 44.7407 34.8493 44.3927ZM38.6808 44.3927C38.6808 43.2604 38.1586 42.6898 37.4168 42.6898C36.6751 42.6898 36.1441 43.2604 36.1441 44.3927C36.1441 45.525 36.6619 46.0561 37.4168 46.0561C38.1717 46.0561 38.6808 45.5382 38.6808 44.4278V44.3927Z" fill="#131314"/>
<path d="M41.1386 46.9339V41.856H42.3412V42.5977C42.4911 42.3247 42.7134 42.0984 42.9837 41.9435C43.2539 41.7886 43.5616 41.7113 43.8729 41.7199C44.1884 41.7136 44.4988 41.8006 44.7651 41.97C45.0313 42.1395 45.2416 42.3838 45.3695 42.6723C45.5405 42.3739 45.7892 42.1275 46.089 41.959C46.3888 41.7906 46.7286 41.7064 47.0724 41.7155C48.1038 41.7155 48.7841 42.2861 48.7841 43.5632V46.9471H47.542V43.8353C47.542 43.0497 47.1865 42.7513 46.6335 42.7513C45.5933 42.7513 45.5758 43.8353 45.5758 44.4235V46.9339H44.3513V43.8353C44.3513 43.0497 43.9826 42.7513 43.434 42.7513C42.4026 42.7513 42.3719 43.8353 42.3719 44.4235V46.9339H41.1386Z" fill="#131314"/>
<path d="M50.2543 46.9339V41.856H51.4613V42.5977C51.6105 42.3251 51.832 42.0989 52.1015 41.944C52.371 41.7891 52.6779 41.7116 52.9886 41.7199C53.3043 41.713 53.6149 41.7998 53.8813 41.9693C54.1476 42.1388 54.3578 42.3834 54.4852 42.6723C54.6563 42.3739 54.9049 42.1275 55.2047 41.959C55.5045 41.7906 55.8443 41.7064 56.1881 41.7155C57.2195 41.7155 57.9042 42.2861 57.9042 43.5632V46.9471H56.6577V43.8353C56.6577 43.0497 56.3022 42.7513 55.7536 42.7513C54.7134 42.7513 54.6915 43.8353 54.6915 44.4235V46.9339H53.467V43.8353C53.467 43.0497 53.1027 42.7513 52.5497 42.7513C51.5183 42.7513 51.492 43.8353 51.492 44.4235V46.9339H50.2543Z" fill="#131314"/>
<path d="M59.0584 45.6261C59.0584 44.2128 60.5858 43.7739 62.2492 43.6203V43.4448C62.2492 42.9444 61.9727 42.6416 61.3187 42.6416C61.0491 42.6169 60.7795 42.6897 60.5588 42.8467C60.3382 43.0037 60.1812 43.2346 60.1162 43.4974L58.9882 43.2034C59.0979 42.4485 59.8923 41.7024 61.3187 41.7024C62.7451 41.7024 63.5 42.3563 63.5 43.5984V45.648C63.5 45.8938 63.5395 45.9552 63.8072 45.9552H64.2724V46.9339H63.3069C63.1957 46.9527 63.0818 46.9476 62.9727 46.919C62.8637 46.8903 62.762 46.8388 62.6744 46.7678C62.5868 46.6968 62.5153 46.608 62.4647 46.5072C62.4141 46.4065 62.3855 46.2961 62.3808 46.1834C62.2013 46.4706 61.9495 46.7057 61.6507 46.8651C61.3519 47.0245 61.0165 47.1027 60.6779 47.0919C59.7299 47.0876 59.0584 46.5258 59.0584 45.6261ZM62.2492 44.8668V44.4279C61.209 44.5376 60.3224 44.7746 60.3224 45.5076C60.3224 45.8938 60.577 46.1396 61.0861 46.1396C61.2487 46.141 61.4098 46.1081 61.5589 46.0432C61.708 45.9782 61.8418 45.8826 61.9515 45.7625C62.0612 45.6425 62.1444 45.5007 62.1957 45.3464C62.247 45.192 62.2652 45.0286 62.2492 44.8668Z" fill="#131314"/>
<path d="M65.0932 46.934V41.856H66.2957V42.6724C66.4559 42.3782 66.6936 42.1336 66.9829 41.9649C67.2723 41.7963 67.6023 41.71 67.9372 41.7156C69.1529 41.7156 69.6532 42.4617 69.6532 43.5721V46.9471H68.4068V43.8354C68.4068 43.0674 68.0513 42.7426 67.4895 42.7426C66.3484 42.7426 66.3265 44.0066 66.3265 44.6166V46.934H65.0932Z" fill="#131314"/>
<path d="M70.7636 44.3928C70.7636 42.7645 71.6414 41.7024 72.9273 41.7024C73.2513 41.6962 73.5714 41.7738 73.8567 41.9275C74.1419 42.0813 74.3827 42.3061 74.5556 42.5802V39.7976H75.7889V46.9339H74.5732V46.2186C74.3941 46.4939 74.1478 46.719 73.8575 46.8726C73.5672 47.0261 73.2425 47.1032 72.9142 47.0963C71.6414 47.0876 70.7636 46.0254 70.7636 44.3928ZM74.6171 44.3928C74.6171 43.2429 74.0904 42.6811 73.3355 42.6811C72.5806 42.6811 72.0583 43.12 72.0583 44.3928C72.0583 45.6656 72.6201 46.1088 73.3355 46.1088C74.0509 46.1088 74.6171 45.5471 74.6171 44.3928Z" fill="#131314"/>
<path d="M73.8227 21.7329H72.0671V18.6343H73.8227C75.1393 18.6343 76.1137 17.5239 76.1137 16.0756C76.1047 15.4086 75.8369 14.7712 75.3669 14.2979C74.8969 13.8246 74.2613 13.5524 73.5944 13.5388C72.1637 13.5388 71.0533 14.5263 71.0533 15.8562V17.6117H67.9547V15.8562C67.9461 15.8105 67.9313 15.7662 67.9108 15.7245C67.8163 15.128 67.511 14.5852 67.0504 14.1946C66.5897 13.804 66.0043 13.5916 65.4004 13.5959C64.7331 13.6061 64.096 13.8757 63.6241 14.3476C63.1522 14.8195 62.8826 15.4566 62.8724 16.1239C62.8675 16.7842 63.1217 17.4202 63.5804 17.8952C64.0391 18.3703 64.6657 18.6467 65.3258 18.665H66.9189V21.7636H65.1634C63.8818 21.7636 62.9031 22.9003 62.9031 24.3662C62.9158 25.0283 63.1877 25.6589 63.6604 26.1226C64.1331 26.5863 64.7689 26.846 65.4311 26.8459C66.8619 26.8459 67.9854 25.8716 67.9854 24.5418V22.7862H71.0884V24.5418C71.0884 25.8584 72.1944 26.8328 73.6427 26.8328C74.3116 26.8238 74.9508 26.5549 75.425 26.0831C75.8993 25.6114 76.1714 24.9736 76.1839 24.3048C76.1268 22.8433 75.1525 21.7329 73.8227 21.7329ZM72.0671 15.8562C72.0742 15.6587 72.1212 15.4647 72.2053 15.2859C72.2895 15.1071 72.409 14.9473 72.5567 14.816C72.7044 14.6847 72.8772 14.5847 73.0646 14.5221C73.252 14.4595 73.4502 14.4356 73.6471 14.4517C74.0639 14.4552 74.4624 14.6232 74.7558 14.9191C75.0493 15.215 75.214 15.6149 75.2139 16.0317C75.2139 16.8305 74.7268 17.6117 73.8227 17.6117H72.0671V15.8562ZM66.9102 24.511C66.9013 24.7079 66.8531 24.901 66.7683 25.0789C66.6835 25.2568 66.564 25.4159 66.4167 25.5469C66.2694 25.6778 66.0974 25.7779 65.9108 25.8412C65.7241 25.9045 65.5267 25.9298 65.3302 25.9155C65.1268 25.9202 64.9246 25.8843 64.7352 25.8099C64.5459 25.7356 64.3733 25.6243 64.2274 25.4825C64.0816 25.3408 63.9654 25.1714 63.8857 24.9842C63.8061 24.7971 63.7644 24.5959 63.7633 24.3925C63.7633 23.5938 64.2505 22.7687 65.1239 22.7687H66.8794V24.5242L66.9102 24.511ZM66.9102 17.5985H65.317C64.9141 17.5741 64.5359 17.396 64.2604 17.1009C63.985 16.8058 63.8333 16.4163 63.8367 16.0126C63.8401 15.609 63.9982 15.222 64.2786 14.9316C64.5589 14.6411 64.94 14.4694 65.3433 14.4517C65.5483 14.4482 65.752 14.4852 65.9426 14.5606C66.1333 14.636 66.3072 14.7482 66.4544 14.8909C66.6015 15.0336 66.7191 15.204 66.8003 15.3922C66.8816 15.5804 66.9249 15.7828 66.9277 15.9878V17.5985H66.9102ZM71.0445 21.7329H67.9459V18.6343H71.0445V21.7329ZM73.6778 25.8848C72.8791 25.8848 72.0978 25.4108 72.0978 24.511V22.7555H73.8534C74.0504 22.7621 74.2441 22.8083 74.4229 22.8913C74.6017 22.9742 74.762 23.0923 74.8942 23.2385C75.0265 23.3847 75.128 23.5559 75.1927 23.7421C75.2574 23.9283 75.284 24.1256 75.271 24.3223C75.2693 24.5311 75.2261 24.7375 75.144 24.9294C75.0618 25.1214 74.9424 25.2951 74.7925 25.4405C74.6426 25.5859 74.4653 25.7 74.271 25.7763C74.0766 25.8525 73.869 25.8894 73.6603 25.8848H73.6778Z" fill="#131314"/>
<path d="M92.7212 25.2878H81.6963V15.0486C81.6929 13.1795 80.9485 11.388 79.6265 10.0668C78.3044 8.74554 76.5125 8.00232 74.6434 8H31.0486C29.1802 8.00348 27.3894 8.74721 26.0683 10.0683C24.7472 11.3894 24.0035 13.1802 24 15.0486V46.8987C24.0035 48.7666 24.7474 50.557 26.0686 51.8774C27.3898 53.1978 29.1806 53.9406 31.0486 53.9429H53.1203V64.8932C53.1203 66.5732 53.7874 68.1845 54.975 69.3729C56.1625 70.5613 57.7734 71.2296 59.4534 71.2307H92.7212C94.4002 71.2272 96.0092 70.5581 97.1956 69.3701C98.382 68.1821 99.0488 66.5721 99.05 64.8932V31.6298C99.0489 29.9504 98.3821 28.34 97.1959 27.1513C96.0096 25.9626 94.4006 25.2925 92.7212 25.2878ZM31.0486 52.714C29.5062 52.7128 28.0273 52.0999 26.9363 51.0097C25.8452 49.9195 25.2312 48.4411 25.2289 46.8987V15.0486C25.2312 13.5058 25.8451 12.0269 26.936 10.936C28.0269 9.8451 29.5058 9.23121 31.0486 9.22889H74.6434C76.1865 9.23005 77.6661 9.84357 78.7572 10.9347C79.8484 12.0259 80.4619 13.5054 80.4631 15.0486V46.8987C80.4607 48.4411 79.8467 49.9195 78.7557 51.0097C77.6647 52.0999 76.1857 52.7128 74.6434 52.714H31.0486ZM97.8299 64.8932C97.8287 66.2477 97.2901 67.5464 96.3323 68.5043C95.3745 69.4621 94.0758 70.0007 92.7212 70.0018H59.4534C58.0993 70.0007 56.801 69.4619 55.8439 68.504C54.8868 67.5461 54.3492 66.2473 54.3492 64.8932V53.9429H74.6434C76.5121 53.9417 78.304 53.1995 79.6262 51.8789C80.9484 50.5584 81.6929 48.7674 81.6963 46.8987V26.5211H92.7212C94.0758 26.5223 95.3745 27.0609 96.3323 28.0187C97.2901 28.9765 97.8287 30.2752 97.8299 31.6298V64.8932Z" fill="#131314"/>
<g clip-path="url(#clip0_51_1959)">
<path d="M89.7726 56.591C89.8586 56.5241 89.9791 56.5241 90.0651 56.591L93.658 59.3855C93.837 59.5248 93.7386 59.8117 93.5118 59.8117H92.0669C91.9355 59.8117 91.8289 59.9182 91.8288 60.0497L91.8244 64.8136C91.8243 64.945 91.7177 65.0515 91.5863 65.0515H88.2516C88.1201 65.0515 88.0135 64.9449 88.0135 64.8133V60.0499C88.0135 59.9183 87.9068 59.8117 87.7753 59.8117H86.3259C86.0991 59.8117 86.0007 59.5248 86.1797 59.3855L89.7726 56.591Z" fill="#131314"/>
</g>
<defs>
<clipPath id="clip0_51_1959">
<rect width="11.4323" height="11.4323" fill="white" transform="translate(82.7737 55.0483)"/>
</clipPath>
</defs>
</svg>