<svg width="11" height="11" viewBox="0 0 11 11" fill="none" xmlns="http://www.w3.org/2000/svg">
<path id="Star 4" d="M5.09638 0.552008C5.29613 0.278829 5.70387 0.278829 5.90362 0.552007L7.59166 2.86066C7.65337 2.94506 7.73999 3.008 7.83933 3.04061L10.5566 3.93262C10.8782 4.03817 11.0042 4.42596 10.8061 4.70034L9.13204 7.01918C9.07084 7.10395 9.03776 7.20578 9.03744 7.31033L9.02878 10.1703C9.02776 10.5087 8.69788 10.7484 8.37572 10.6448L5.65307 9.76922C5.55353 9.73722 5.44647 9.73722 5.34693 9.76922L2.62428 10.6448C2.30212 10.7484 1.97224 10.5087 1.97122 10.1703L1.96256 7.31033C1.96224 7.20578 1.92916 7.10395 1.86796 7.01918L0.193927 4.70034C-0.00415707 4.42596 0.121844 4.03817 0.443376 3.93262L3.16067 3.04061C3.26001 3.008 3.34663 2.94506 3.40834 2.86066L5.09638 0.552008Z" fill="white"/>
</svg>
